<svg width="120" height="120" viewBox="0 0 120 120" fill="none" xmlns="http://www.w3.org/2000/svg">
<path d="M31.7942 57.25C45.4632 57.25 56.5442 46.169 56.5442 32.5C56.5442 27.5223 55.0747 22.8877 52.5459 19.0066C52.7565 19.0022 52.9678 19 53.1795 19C69.748 19 83.1795 32.4315 83.1795 49C83.1795 65.5685 69.748 79 53.1795 79C39.0204 79 27.1524 69.191 24 55.9978C26.4506 56.8102 29.071 57.25 31.7942 57.25Z" fill="#B8CEFF"/>
<path d="M105.792 73.535C101.049 73.6756 96.3551 72.5363 92.1988 70.2356C86.9046 67.3586 80.9621 65.9018 74.9446 66.0057C68.9131 65.8964 62.9556 67.3533 57.6483 70.2356C53.492 72.5363 48.7983 73.6756 44.0554 73.535C39.3132 73.6694 34.6211 72.5305 30.4625 70.2356C25.1684 67.3586 19.2258 65.9018 13.2083 66.0057C12.0922 66.0057 11.0218 66.4514 10.2326 67.2446C9.44338 68.0379 9 69.1138 9 70.2356C9 71.3575 9.44338 72.4334 10.2326 73.2266C11.0218 74.0199 12.0922 74.4656 13.2083 74.4656C17.9506 74.3311 22.6427 75.47 26.8012 77.7649C32.0954 80.6419 38.0379 82.0988 44.0554 81.9948C50.0729 82.0988 56.0155 80.6419 61.3096 77.7649C65.4813 75.4646 70.1884 74.3256 74.9446 74.4656C79.6868 74.3311 84.3789 75.47 88.5375 77.7649C93.8316 80.6419 99.7742 82.0988 105.792 81.9948C106.908 81.9948 107.978 81.5492 108.767 80.7559C109.557 79.9626 110 78.8867 110 77.7649C110 76.643 109.557 75.5672 108.767 74.7739C107.978 73.9806 106.908 73.535 105.792 73.535Z" fill="white"/>
<path d="M105.792 89.535C101.049 89.6756 96.3551 88.5363 92.1988 86.2356C86.9046 83.3586 80.9621 81.9018 74.9446 82.0057C68.9131 81.8964 62.9556 83.3533 57.6483 86.2356C53.492 88.5363 48.7983 89.6756 44.0554 89.535C39.3132 89.6694 34.6211 88.5305 30.4625 86.2356C25.1684 83.3586 19.2258 81.9018 13.2083 82.0057C12.0922 82.0057 11.0218 82.4514 10.2326 83.2446C9.44338 84.0379 9 85.1138 9 86.2356C9 87.3575 9.44338 88.4334 10.2326 89.2266C11.0218 90.0199 12.0922 90.4656 13.2083 90.4656C17.9506 90.3311 22.6427 91.47 26.8012 93.7649C32.0954 96.6419 38.0379 98.0988 44.0554 97.9948C50.0729 98.0988 56.0155 96.6419 61.3096 93.7649C65.4813 91.4646 70.1884 90.3256 74.9446 90.4656C79.6868 90.3311 84.3789 91.47 88.5375 93.7649C93.8316 96.6419 99.7742 98.0988 105.792 97.9948C106.908 97.9948 107.978 97.5492 108.767 96.7559C109.557 95.9626 110 94.8867 110 93.7649C110 92.643 109.557 91.5672 108.767 90.7739C107.978 89.9806 106.908 89.535 105.792 89.535Z" fill="white"/>
<path d="M105.792 81.535C101.049 81.6756 96.3551 80.5363 92.1988 78.2356C86.9046 75.3586 80.9621 73.9018 74.9446 74.0057C68.9131 73.8964 62.9556 75.3533 57.6483 78.2356C53.492 80.5363 48.7983 81.6756 44.0554 81.535C39.3132 81.6694 34.6211 80.5305 30.4625 78.2356C25.1684 75.3586 19.2258 73.9018 13.2083 74.0057C12.0922 74.0057 11.0218 74.4514 10.2326 75.2446C9.44338 76.0379 9 77.1138 9 78.2356C9 79.3575 9.44338 80.4334 10.2326 81.2266C11.0218 82.0199 12.0922 82.4656 13.2083 82.4656C17.9506 82.3311 22.6427 83.47 26.8012 85.7649C32.0954 88.6419 38.0379 90.0988 44.0554 89.9948C50.0729 90.0988 56.0155 88.6419 61.3096 85.7649C65.4813 83.4646 70.1884 82.3256 74.9446 82.4656C79.6868 82.3311 84.3789 83.47 88.5375 85.7649C93.8316 88.6419 99.7742 90.0988 105.792 89.9948C106.908 89.9948 107.978 89.5492 108.767 88.7559C109.557 87.9626 110 86.8867 110 85.7649C110 84.643 109.557 83.5672 108.767 82.7739C107.978 81.9806 106.908 81.535 105.792 81.535Z" fill="#CCCCCC"/>
<path d="M105.792 97.535C101.049 97.6756 96.3551 96.5363 92.1988 94.2356C86.9046 91.3586 80.9621 89.9018 74.9446 90.0057C68.9131 89.8964 62.9556 91.3533 57.6483 94.2356C53.492 96.5363 48.7983 97.6756 44.0554 97.535C39.3132 97.6694 34.6211 96.5305 30.4625 94.2356C25.1684 91.3586 19.2258 89.9018 13.2083 90.0057C12.0922 90.0057 11.0218 90.4514 10.2326 91.2446C9.44338 92.0379 9 93.1138 9 94.2356C9 95.3575 9.44338 96.4334 10.2326 97.2266C11.0218 98.0199 12.0922 98.4656 13.2083 98.4656C17.9506 98.3311 22.6427 99.47 26.8012 101.765C32.0954 104.642 38.0379 106.099 44.0554 105.995C50.0729 106.099 56.0155 104.642 61.3096 101.765C65.4813 99.4646 70.1884 98.3256 74.9446 98.4656C79.6868 98.3311 84.3789 99.47 88.5375 101.765C93.8316 104.642 99.7742 106.099 105.792 105.995C106.908 105.995 107.978 105.549 108.767 104.756C109.557 103.963 110 102.887 110 101.765C110 100.643 109.557 99.5672 108.767 98.7739C107.978 97.9806 106.908 97.535 105.792 97.535Z" fill="#CCCCCC"/>
</svg>
