<svg width="120" height="120" viewBox="0 0 120 120" fill="none" xmlns="http://www.w3.org/2000/svg">
<path d="M107.792 78.535C103.049 78.6756 98.3551 77.5363 94.1988 75.2356C88.9046 72.3586 82.9621 70.9018 76.9446 71.0057C70.9131 70.8964 64.9556 72.3533 59.6483 75.2356C55.492 77.5363 50.7983 78.6756 46.0554 78.535C41.3132 78.6694 36.6211 77.5305 32.4625 75.2356C27.1684 72.3586 21.2258 70.9018 15.2083 71.0057C14.0922 71.0057 13.0218 71.4514 12.2326 72.2446C11.4434 73.0379 11 74.1138 11 75.2356C11 76.3575 11.4434 77.4334 12.2326 78.2266C13.0218 79.0199 14.0922 79.4656 15.2083 79.4656C19.9506 79.3311 24.6427 80.47 28.8012 82.7649C34.0954 85.6419 40.0379 87.0988 46.0554 86.9948C52.0729 87.0988 58.0155 85.6419 63.3096 82.7649C67.4813 80.4646 72.1884 79.3256 76.9446 79.4656C81.6868 79.3311 86.3789 80.47 90.5375 82.7649C95.8316 85.6419 101.774 87.0988 107.792 86.9948C108.908 86.9948 109.978 86.5492 110.767 85.7559C111.557 84.9626 112 83.8867 112 82.7649C112 81.643 111.557 80.5672 110.767 79.7739C109.978 78.9806 108.908 78.535 107.792 78.535Z" fill="#CCCCCC"/>
<path d="M107.792 94.535C103.049 94.6756 98.3551 93.5363 94.1988 91.2356C88.9046 88.3586 82.9621 86.9018 76.9446 87.0057C70.9131 86.8964 64.9556 88.3533 59.6483 91.2356C55.492 93.5363 50.7983 94.6756 46.0554 94.535C41.3132 94.6694 36.6211 93.5305 32.4625 91.2356C27.1684 88.3586 21.2258 86.9018 15.2083 87.0057C14.0922 87.0057 13.0218 87.4514 12.2326 88.2446C11.4434 89.0379 11 90.1138 11 91.2356C11 92.3575 11.4434 93.4334 12.2326 94.2266C13.0218 95.0199 14.0922 95.4656 15.2083 95.4656C19.9506 95.3311 24.6427 96.47 28.8012 98.7649C34.0954 101.642 40.0379 103.099 46.0554 102.995C52.0729 103.099 58.0155 101.642 63.3096 98.7649C67.4813 96.4646 72.1884 95.3256 76.9446 95.4656C81.6868 95.3311 86.3789 96.47 90.5375 98.7649C95.8316 101.642 101.774 103.099 107.792 102.995C108.908 102.995 109.978 102.549 110.767 101.756C111.557 100.963 112 99.8867 112 98.7649C112 97.643 111.557 96.5672 110.767 95.7739C109.978 94.9806 108.908 94.535 107.792 94.535Z" fill="#CCCCCC"/>
<path d="M107.792 62.535C103.049 62.6756 98.3551 61.5363 94.1988 59.2356C88.9046 56.3586 82.9621 54.9018 76.9446 55.0057C70.9131 54.8964 64.9556 56.3533 59.6483 59.2356C55.492 61.5363 50.7983 62.6756 46.0554 62.535C41.3132 62.6694 36.6211 61.5305 32.4625 59.2356C27.1684 56.3586 21.2258 54.9018 15.2083 55.0057C14.0922 55.0057 13.0218 55.4514 12.2326 56.2446C11.4434 57.0379 11 58.1138 11 59.2356C11 60.3575 11.4434 61.4334 12.2326 62.2266C13.0218 63.0199 14.0922 63.4656 15.2083 63.4656C19.9506 63.3311 24.6427 64.47 28.8012 66.7649C34.0954 69.6419 40.0379 71.0988 46.0554 70.9948C52.0729 71.0988 58.0155 69.6419 63.3096 66.7649C67.4813 64.4646 72.1884 63.3256 76.9446 63.4656C81.6868 63.3311 86.3789 64.47 90.5375 66.7649C95.8316 69.6419 101.774 71.0988 107.792 70.9948C108.908 70.9948 109.978 70.5492 110.767 69.7559C111.557 68.9626 112 67.8867 112 66.7649C112 65.643 111.557 64.5672 110.767 63.7739C109.978 62.9806 108.908 62.535 107.792 62.535Z" fill="#CCCCCC"/>
<mask id="path-3-outside-1" maskUnits="userSpaceOnUse" x="10" y="13" width="102" height="39" fill="black">
<rect fill="white" x="10" y="13" width="102" height="39"/>
<path fill-rule="evenodd" clip-rule="evenodd" d="M33.9658 24.9624L29.8441 25.3817L30.2634 21.0365C30.2634 18.8086 28.4525 17 26.2269 17C23.9944 17 22.1882 18.8086 22.1882 21.0365L22.6052 25.3817L18.0388 24.9624C15.8086 24.9624 14 26.7686 14 29.0012C14 31.229 15.8086 33.0376 18.0388 33.0376L22.6052 32.6183L22.1882 36.9635C22.1882 39.1937 23.9944 41 26.2269 41C28.4525 41 30.2634 39.1937 30.2634 36.9635L29.8441 32.6183L33.9658 33.0376C36.1937 33.0376 38 31.229 38 29.0012C38 26.7686 36.1937 24.9624 33.9658 24.9624Z"/>
<path fill-rule="evenodd" clip-rule="evenodd" d="M103.966 24.9624L99.8441 25.3817L100.263 21.0365C100.263 18.8086 98.4525 17 96.2269 17C93.9944 17 92.1882 18.8086 92.1882 21.0365L92.6052 25.3817L88.0388 24.9624C85.8086 24.9624 84 26.7686 84 29.0012C84 31.229 85.8086 33.0376 88.0388 33.0376L92.6052 32.6183L92.1882 36.9635C92.1882 39.1937 93.9944 41 96.2269 41C98.4525 41 100.263 39.1937 100.263 36.9635L99.8441 32.6183L103.966 33.0376C106.194 33.0376 108 31.229 108 29.0012C108 26.7686 106.194 24.9624 103.966 24.9624Z"/>
<path fill-rule="evenodd" clip-rule="evenodd" d="M67.9658 31.9624L63.8441 32.3817L64.2634 28.0365C64.2634 25.8086 62.4525 24 60.2269 24C57.9944 24 56.1882 25.8086 56.1882 28.0365L56.6052 32.3817L52.0388 31.9624C49.8086 31.9624 48 33.7686 48 36.0012C48 38.229 49.8086 40.0376 52.0388 40.0376L56.6052 39.6183L56.1882 43.9635C56.1882 46.1937 57.9944 48 60.2269 48C62.4525 48 64.2634 46.1937 64.2634 43.9635L63.8441 39.6183L67.9658 40.0376C70.1937 40.0376 72 38.229 72 36.0012C72 33.7686 70.1937 31.9624 67.9658 31.9624Z"/>
</mask>
<path fill-rule="evenodd" clip-rule="evenodd" d="M33.9658 24.9624L29.8441 25.3817L30.2634 21.0365C30.2634 18.8086 28.4525 17 26.2269 17C23.9944 17 22.1882 18.8086 22.1882 21.0365L22.6052 25.3817L18.0388 24.9624C15.8086 24.9624 14 26.7686 14 29.0012C14 31.229 15.8086 33.0376 18.0388 33.0376L22.6052 32.6183L22.1882 36.9635C22.1882 39.1937 23.9944 41 26.2269 41C28.4525 41 30.2634 39.1937 30.2634 36.9635L29.8441 32.6183L33.9658 33.0376C36.1937 33.0376 38 31.229 38 29.0012C38 26.7686 36.1937 24.9624 33.9658 24.9624Z" fill="#51C2F0"/>
<path fill-rule="evenodd" clip-rule="evenodd" d="M103.966 24.9624L99.8441 25.3817L100.263 21.0365C100.263 18.8086 98.4525 17 96.2269 17C93.9944 17 92.1882 18.8086 92.1882 21.0365L92.6052 25.3817L88.0388 24.9624C85.8086 24.9624 84 26.7686 84 29.0012C84 31.229 85.8086 33.0376 88.0388 33.0376L92.6052 32.6183L92.1882 36.9635C92.1882 39.1937 93.9944 41 96.2269 41C98.4525 41 100.263 39.1937 100.263 36.9635L99.8441 32.6183L103.966 33.0376C106.194 33.0376 108 31.229 108 29.0012C108 26.7686 106.194 24.9624 103.966 24.9624Z" fill="#51C2F0"/>
<path fill-rule="evenodd" clip-rule="evenodd" d="M67.9658 31.9624L63.8441 32.3817L64.2634 28.0365C64.2634 25.8086 62.4525 24 60.2269 24C57.9944 24 56.1882 25.8086 56.1882 28.0365L56.6052 32.3817L52.0388 31.9624C49.8086 31.9624 48 33.7686 48 36.0012C48 38.229 49.8086 40.0376 52.0388 40.0376L56.6052 39.6183L56.1882 43.9635C56.1882 46.1937 57.9944 48 60.2269 48C62.4525 48 64.2634 46.1937 64.2634 43.9635L63.8441 39.6183L67.9658 40.0376C70.1937 40.0376 72 38.229 72 36.0012C72 33.7686 70.1937 31.9624 67.9658 31.9624Z" fill="#51C2F0"/>
<path fill-rule="evenodd" clip-rule="evenodd" d="M33.9658 24.9624L29.8441 25.3817L30.2634 21.0365C30.2634 18.8086 28.4525 17 26.2269 17C23.9944 17 22.1882 18.8086 22.1882 21.0365L22.6052 25.3817L18.0388 24.9624C15.8086 24.9624 14 26.7686 14 29.0012C14 31.229 15.8086 33.0376 18.0388 33.0376L22.6052 32.6183L22.1882 36.9635C22.1882 39.1937 23.9944 41 26.2269 41C28.4525 41 30.2634 39.1937 30.2634 36.9635L29.8441 32.6183L33.9658 33.0376C36.1937 33.0376 38 31.229 38 29.0012C38 26.7686 36.1937 24.9624 33.9658 24.9624Z" stroke="white" stroke-width="8" mask="url(#path-3-outside-1)"/>
<path fill-rule="evenodd" clip-rule="evenodd" d="M103.966 24.9624L99.8441 25.3817L100.263 21.0365C100.263 18.8086 98.4525 17 96.2269 17C93.9944 17 92.1882 18.8086 92.1882 21.0365L92.6052 25.3817L88.0388 24.9624C85.8086 24.9624 84 26.7686 84 29.0012C84 31.229 85.8086 33.0376 88.0388 33.0376L92.6052 32.6183L92.1882 36.9635C92.1882 39.1937 93.9944 41 96.2269 41C98.4525 41 100.263 39.1937 100.263 36.9635L99.8441 32.6183L103.966 33.0376C106.194 33.0376 108 31.229 108 29.0012C108 26.7686 106.194 24.9624 103.966 24.9624Z" stroke="white" stroke-width="8" mask="url(#path-3-outside-1)"/>
<path fill-rule="evenodd" clip-rule="evenodd" d="M67.9658 31.9624L63.8441 32.3817L64.2634 28.0365C64.2634 25.8086 62.4525 24 60.2269 24C57.9944 24 56.1882 25.8086 56.1882 28.0365L56.6052 32.3817L52.0388 31.9624C49.8086 31.9624 48 33.7686 48 36.0012C48 38.229 49.8086 40.0376 52.0388 40.0376L56.6052 39.6183L56.1882 43.9635C56.1882 46.1937 57.9944 48 60.2269 48C62.4525 48 64.2634 46.1937 64.2634 43.9635L63.8441 39.6183L67.9658 40.0376C70.1937 40.0376 72 38.229 72 36.0012C72 33.7686 70.1937 31.9624 67.9658 31.9624Z" stroke="white" stroke-width="8" mask="url(#path-3-outside-1)"/>
</svg>
