<svg width="120" height="120" viewBox="0 0 120 120" fill="none" xmlns="http://www.w3.org/2000/svg">
<path d="M24.3922 65C42.6176 65 57.3923 50.2254 57.3923 32C57.3923 25.363 55.4329 19.1836 52.0612 14.0087C52.3421 14.0029 52.6237 14 52.906 14C74.9974 14 92.906 31.9086 92.906 54C92.906 76.0914 74.9974 94 52.906 94C34.0272 94 18.2032 80.9214 14 63.3304C17.2674 64.4136 20.7614 65 24.3922 65Z" fill="#B8CEFF"/>
<mask id="path-3-outside-1" maskUnits="userSpaceOnUse" x="42" y="56" width="71" height="50" fill="black">
<rect fill="white" x="42" y="56" width="71" height="50"/>
<path d="M88.1201 101.999C99.6713 101.885 109 92.5269 109 81C109 69.402 99.556 60 87.9062 60C77.7013 60 69.1889 67.2145 67.2345 76.7999H58.6C51.6412 76.7999 46 82.4411 46 89.3999C46 96.3587 51.6412 102 58.6 102H87.8433C87.8643 102 87.8853 102 87.9062 102C87.9275 102 87.9487 102 87.9699 102C88.02 102 88.0701 102 88.1201 101.999Z"/>
</mask>
<path d="M88.1201 101.999C99.6713 101.885 109 92.5269 109 81C109 69.402 99.556 60 87.9062 60C77.7013 60 69.1889 67.2145 67.2345 76.7999H58.6C51.6412 76.7999 46 82.4411 46 89.3999C46 96.3587 51.6412 102 58.6 102H87.8433C87.8643 102 87.8853 102 87.9062 102C87.9275 102 87.9487 102 87.9699 102C88.02 102 88.0701 102 88.1201 101.999Z" fill="#CCCCCC"/>
<path d="M88.1201 101.999C99.6713 101.885 109 92.5269 109 81C109 69.402 99.556 60 87.9062 60C77.7013 60 69.1889 67.2145 67.2345 76.7999H58.6C51.6412 76.7999 46 82.4411 46 89.3999C46 96.3587 51.6412 102 58.6 102H87.8433C87.8643 102 87.8853 102 87.9062 102C87.9275 102 87.9487 102 87.9699 102C88.02 102 88.0701 102 88.1201 101.999Z" stroke="white" stroke-width="8" mask="url(#path-3-outside-1)"/>
</svg>
