<svg width="120" height="120" viewBox="0 0 120 120" fill="none" xmlns="http://www.w3.org/2000/svg">
<path d="M21.3922 72C39.6176 72 54.3923 57.2254 54.3923 39C54.3923 32.363 52.4329 26.1836 49.0612 21.0087C49.3421 21.0029 49.6237 21 49.906 21C71.9974 21 89.906 38.9086 89.906 61C89.906 83.0914 71.9974 101 49.906 101C31.0272 101 15.2032 87.9214 11 70.3304C14.2674 71.4136 17.7614 72 21.3922 72Z" fill="#B8CEFF"/>
<mask id="path-3-outside-1" maskUnits="userSpaceOnUse" x="45" y="30" width="71" height="50" fill="black">
<rect fill="white" x="45" y="30" width="71" height="50"/>
<path d="M91.1201 75.9989C102.671 75.8847 112 66.5269 112 55C112 43.402 102.556 34 90.9062 34C80.7013 34 72.1889 41.2145 70.2345 50.7999H61.6C54.6412 50.7999 49 56.4411 49 63.3999C49 70.3587 54.6412 75.9999 61.6 75.9999H90.8433C90.8643 76 90.8853 76 90.9062 76C90.9275 76 90.9487 76 90.9699 75.9999C91.02 75.9999 91.0701 75.9996 91.1201 75.9989Z"/>
</mask>
<path d="M91.1201 75.9989C102.671 75.8847 112 66.5269 112 55C112 43.402 102.556 34 90.9062 34C80.7013 34 72.1889 41.2145 70.2345 50.7999H61.6C54.6412 50.7999 49 56.4411 49 63.3999C49 70.3587 54.6412 75.9999 61.6 75.9999H90.8433C90.8643 76 90.8853 76 90.9062 76C90.9275 76 90.9487 76 90.9699 75.9999C91.02 75.9999 91.0701 75.9996 91.1201 75.9989Z" fill="#CCCCCC"/>
<path d="M91.1201 75.9989C102.671 75.8847 112 66.5269 112 55C112 43.402 102.556 34 90.9062 34C80.7013 34 72.1889 41.2145 70.2345 50.7999H61.6C54.6412 50.7999 49 56.4411 49 63.3999C49 70.3587 54.6412 75.9999 61.6 75.9999H90.8433C90.8643 76 90.8853 76 90.9062 76C90.9275 76 90.9487 76 90.9699 75.9999C91.02 75.9999 91.0701 75.9996 91.1201 75.9989Z" stroke="white" stroke-width="8" mask="url(#path-3-outside-1)"/>
</svg>
