<svg width="120" height="120" viewBox="0 0 120 120" fill="none" xmlns="http://www.w3.org/2000/svg">
<g clip-path="url(#clip0)">
<mask id="path-2-outside-1" maskUnits="userSpaceOnUse" x="-1" y="7" width="122" height="85" fill="black">
<rect fill="white" x="-1" y="7" width="122" height="85"/>
<path d="M78.872 87.3393C99.9334 87.3168 117 70.2363 117 49.1696C117 28.0891 99.9109 11 78.8304 11C60.3642 11 44.9608 24.1133 41.4243 41.5357H25.9018C13.2535 41.5357 3 51.7892 3 64.4375C3 77.0858 13.2535 87.3393 25.9018 87.3393L78.8304 87.3393C78.8443 87.3393 78.8582 87.3393 78.872 87.3393Z"/>
</mask>
<path d="M78.872 87.3393C99.9334 87.3168 117 70.2363 117 49.1696C117 28.0891 99.9109 11 78.8304 11C60.3642 11 44.9608 24.1133 41.4243 41.5357H25.9018C13.2535 41.5357 3 51.7892 3 64.4375C3 77.0858 13.2535 87.3393 25.9018 87.3393L78.8304 87.3393C78.8443 87.3393 78.8582 87.3393 78.872 87.3393Z" fill="#E6C450"/>
<path d="M78.872 87.3393C99.9334 87.3168 117 70.2363 117 49.1696C117 28.0891 99.9109 11 78.8304 11C60.3642 11 44.9608 24.1133 41.4243 41.5357H25.9018C13.2535 41.5357 3 51.7892 3 64.4375C3 77.0858 13.2535 87.3393 25.9018 87.3393L78.8304 87.3393C78.8443 87.3393 78.8582 87.3393 78.872 87.3393Z" stroke="white" stroke-width="8" mask="url(#path-2-outside-1)"/>
<path fill-rule="evenodd" clip-rule="evenodd" d="M92 46.5C92 49.5386 94.4614 52 97.5 52C100.539 52 103 49.5386 103 46.5C103 43.4614 100.539 41 97.5 41C94.4614 41 92 43.4614 92 46.5Z" fill="#B88510"/>
<path fill-rule="evenodd" clip-rule="evenodd" d="M66 29.5C66 32.5386 68.4614 35 71.5 35C74.5386 35 77 32.5386 77 29.5C77 26.4614 74.5386 24 71.5 24C68.4614 24 66 26.4614 66 29.5Z" fill="#B88510"/>
<path fill-rule="evenodd" clip-rule="evenodd" d="M20 60.5C20 63.5386 22.4614 66 25.5 66C28.5386 66 31 63.5386 31 60.5C31 57.4614 28.5386 55 25.5 55C22.4614 55 20 57.4614 20 60.5Z" fill="#B88510"/>
<mask id="path-4-outside-2" maskUnits="userSpaceOnUse" x="15" y="48" width="94" height="65" fill="black">
<rect fill="white" x="15" y="48" width="94" height="65"/>
<path d="M75.62 109C91.3601 109 104.12 96.2401 104.12 80.5C104.12 64.7599 91.3601 52 75.62 52C61.8319 52 50.3307 61.7912 47.6901 74.8H36.1C26.6559 74.8 19 82.4559 19 91.9C19 101.344 26.6559 109 36.1 109H75.62Z"/>
</mask>
<path d="M75.62 109C91.3601 109 104.12 96.2401 104.12 80.5C104.12 64.7599 91.3601 52 75.62 52C61.8319 52 50.3307 61.7912 47.6901 74.8H36.1C26.6559 74.8 19 82.4559 19 91.9C19 101.344 26.6559 109 36.1 109H75.62Z" fill="#FFDA59"/>
<path d="M75.62 109C91.3601 109 104.12 96.2401 104.12 80.5C104.12 64.7599 91.3601 52 75.62 52C61.8319 52 50.3307 61.7912 47.6901 74.8H36.1C26.6559 74.8 19 82.4559 19 91.9C19 101.344 26.6559 109 36.1 109H75.62Z" stroke="white" stroke-width="8" mask="url(#path-4-outside-2)"/>
<path fill-rule="evenodd" clip-rule="evenodd" d="M68 90.7947C68 93.8333 65.5386 96.2947 62.5 96.2947C59.4614 96.2947 57 93.8333 57 90.7947C57 87.7561 59.4614 85.2947 62.5 85.2947C65.5386 85.2947 68 87.7561 68 90.7947Z" fill="#B88510"/>
<path fill-rule="evenodd" clip-rule="evenodd" d="M79 66.7947C79 69.8333 76.5386 72.2947 73.5 72.2947C70.4614 72.2947 68 69.8333 68 66.7947C68 63.7561 70.4614 61.2947 73.5 61.2947C76.5386 61.2947 79 63.7561 79 66.7947Z" fill="#B88510"/>
<path fill-rule="evenodd" clip-rule="evenodd" d="M99 84.7947C99 87.8333 96.5386 90.2947 93.5 90.2947C90.4614 90.2947 88 87.8333 88 84.7947C88 81.7561 90.4614 79.2947 93.5 79.2947C96.5386 79.2947 99 81.7561 99 84.7947Z" fill="#B88510"/>
</g>
<defs>
<clipPath id="clip0">
<rect width="120" height="120" fill="white"/>
</clipPath>
</defs>
</svg>
