<svg width="120" height="120" viewBox="0 0 120 120" fill="none" xmlns="http://www.w3.org/2000/svg">
<mask id="path-2-outside-1" maskUnits="userSpaceOnUse" x="4" y="0" width="112" height="68" fill="black">
<rect fill="white" x="4" width="112" height="68"/>
<path d="M36.6001 28C39.3797 14.3066 51.4863 4 66 4C80.533 4 92.6524 14.3339 95.4109 28.0545C104.693 28.7741 112 36.5337 112 46C112 55.9411 103.941 64 94 64H26C16.0589 64 8 55.9411 8 46C8 36.0589 16.0589 28 26 28H36.6001Z"/>
</mask>
<path d="M36.6001 28C39.3797 14.3066 51.4863 4 66 4C80.533 4 92.6524 14.3339 95.4109 28.0545C104.693 28.7741 112 36.5337 112 46C112 55.9411 103.941 64 94 64H26C16.0589 64 8 55.9411 8 46C8 36.0589 16.0589 28 26 28H36.6001Z" fill="#CCCCCC"/>
<path d="M36.6001 28C39.3797 14.3066 51.4863 4 66 4C80.533 4 92.6524 14.3339 95.4109 28.0545C104.693 28.7741 112 36.5337 112 46C112 55.9411 103.941 64 94 64H26C16.0589 64 8 55.9411 8 46C8 36.0589 16.0589 28 26 28H36.6001Z" stroke="white" stroke-width="8" mask="url(#path-2-outside-1)"/>
<mask id="path-3-outside-2" maskUnits="userSpaceOnUse" x="21" y="64" width="72" height="20" fill="black">
<rect fill="white" x="21" y="64" width="72" height="20"/>
<path fill-rule="evenodd" clip-rule="evenodd" d="M35.925 74.8684C35.4451 77.5902 32.8529 79.4045 30.1338 78.925C27.4124 78.4452 25.597 75.8537 26.0769 73.1319C26.5566 70.4114 29.1489 68.5971 31.8703 69.0769C34.5894 69.5564 36.4047 72.1479 35.925 74.8684Z"/>
<path fill-rule="evenodd" clip-rule="evenodd" d="M61.9269 74.8684C61.447 77.5902 58.8547 79.4045 56.1357 78.925C53.4142 78.4452 51.5989 75.8537 52.0788 73.1319C52.5585 70.4114 55.1507 68.5971 57.8722 69.0769C60.5912 69.5564 62.4066 72.1479 61.9269 74.8684Z"/>
<path fill-rule="evenodd" clip-rule="evenodd" d="M87.9287 74.8684C87.4488 77.5902 84.8566 79.4045 82.1375 78.925C79.4161 78.4452 77.6008 75.8537 78.0807 73.1319C78.5604 70.4114 81.1526 68.5971 83.874 69.0769C86.5931 69.5564 88.4085 72.1479 87.9287 74.8684Z"/>
</mask>
<path fill-rule="evenodd" clip-rule="evenodd" d="M35.925 74.8684C35.4451 77.5902 32.8529 79.4045 30.1338 78.925C27.4124 78.4452 25.597 75.8537 26.0769 73.1319C26.5566 70.4114 29.1489 68.5971 31.8703 69.0769C34.5894 69.5564 36.4047 72.1479 35.925 74.8684Z" fill="#51C2F0"/>
<path fill-rule="evenodd" clip-rule="evenodd" d="M61.9269 74.8684C61.447 77.5902 58.8547 79.4045 56.1357 78.925C53.4142 78.4452 51.5989 75.8537 52.0788 73.1319C52.5585 70.4114 55.1507 68.5971 57.8722 69.0769C60.5912 69.5564 62.4066 72.1479 61.9269 74.8684Z" fill="#51C2F0"/>
<path fill-rule="evenodd" clip-rule="evenodd" d="M87.9287 74.8684C87.4488 77.5902 84.8566 79.4045 82.1375 78.925C79.4161 78.4452 77.6008 75.8537 78.0807 73.1319C78.5604 70.4114 81.1526 68.5971 83.874 69.0769C86.5931 69.5564 88.4085 72.1479 87.9287 74.8684Z" fill="#51C2F0"/>
<path fill-rule="evenodd" clip-rule="evenodd" d="M35.925 74.8684C35.4451 77.5902 32.8529 79.4045 30.1338 78.925C27.4124 78.4452 25.597 75.8537 26.0769 73.1319C26.5566 70.4114 29.1489 68.5971 31.8703 69.0769C34.5894 69.5564 36.4047 72.1479 35.925 74.8684Z" stroke="white" stroke-width="8" mask="url(#path-3-outside-2)"/>
<path fill-rule="evenodd" clip-rule="evenodd" d="M61.9269 74.8684C61.447 77.5902 58.8547 79.4045 56.1357 78.925C53.4142 78.4452 51.5989 75.8537 52.0788 73.1319C52.5585 70.4114 55.1507 68.5971 57.8722 69.0769C60.5912 69.5564 62.4066 72.1479 61.9269 74.8684Z" stroke="white" stroke-width="8" mask="url(#path-3-outside-2)"/>
<path fill-rule="evenodd" clip-rule="evenodd" d="M87.9287 74.8684C87.4488 77.5902 84.8566 79.4045 82.1375 78.925C79.4161 78.4452 77.6008 75.8537 78.0807 73.1319C78.5604 70.4114 81.1526 68.5971 83.874 69.0769C86.5931 69.5564 88.4085 72.1479 87.9287 74.8684Z" stroke="white" stroke-width="8" mask="url(#path-3-outside-2)"/>
<mask id="path-4-outside-3" maskUnits="userSpaceOnUse" x="8" y="82" width="84" height="28" fill="black">
<rect fill="white" x="8" y="82" width="84" height="28"/>
<path fill-rule="evenodd" clip-rule="evenodd" d="M86.8617 97.5612C85.998 102.459 81.3329 105.725 76.4394 104.862C71.5418 103.998 68.2748 99.3344 69.1384 94.4361C70.0018 89.54 74.6669 86.2749 79.5645 87.1385C84.4579 88.0013 87.725 92.6651 86.8617 97.5612Z"/>
<path fill-rule="evenodd" clip-rule="evenodd" d="M58.8617 97.5612C57.998 102.459 53.3329 105.725 48.4394 104.862C43.5418 103.998 40.2748 99.3344 41.1384 94.4361C42.0018 89.54 46.6669 86.2749 51.5645 87.1385C56.4579 88.0013 59.725 92.6651 58.8617 97.5612Z"/>
<path fill-rule="evenodd" clip-rule="evenodd" d="M30.8617 97.5612C29.998 102.459 25.3329 105.725 20.4394 104.862C15.5418 103.998 12.2748 99.3344 13.1384 94.4361C14.0018 89.54 18.6669 86.2749 23.5645 87.1385C28.4579 88.0013 31.725 92.6651 30.8617 97.5612Z"/>
</mask>
<path fill-rule="evenodd" clip-rule="evenodd" d="M86.8617 97.5612C85.998 102.459 81.3329 105.725 76.4394 104.862C71.5418 103.998 68.2748 99.3344 69.1384 94.4361C70.0018 89.54 74.6669 86.2749 79.5645 87.1385C84.4579 88.0013 87.725 92.6651 86.8617 97.5612Z" fill="#51C2F0"/>
<path fill-rule="evenodd" clip-rule="evenodd" d="M58.8617 97.5612C57.998 102.459 53.3329 105.725 48.4394 104.862C43.5418 103.998 40.2748 99.3344 41.1384 94.4361C42.0018 89.54 46.6669 86.2749 51.5645 87.1385C56.4579 88.0013 59.725 92.6651 58.8617 97.5612Z" fill="#51C2F0"/>
<path fill-rule="evenodd" clip-rule="evenodd" d="M30.8617 97.5612C29.998 102.459 25.3329 105.725 20.4394 104.862C15.5418 103.998 12.2748 99.3344 13.1384 94.4361C14.0018 89.54 18.6669 86.2749 23.5645 87.1385C28.4579 88.0013 31.725 92.6651 30.8617 97.5612Z" fill="#51C2F0"/>
<path fill-rule="evenodd" clip-rule="evenodd" d="M86.8617 97.5612C85.998 102.459 81.3329 105.725 76.4394 104.862C71.5418 103.998 68.2748 99.3344 69.1384 94.4361C70.0018 89.54 74.6669 86.2749 79.5645 87.1385C84.4579 88.0013 87.725 92.6651 86.8617 97.5612Z" stroke="white" stroke-width="8" mask="url(#path-4-outside-3)"/>
<path fill-rule="evenodd" clip-rule="evenodd" d="M58.8617 97.5612C57.998 102.459 53.3329 105.725 48.4394 104.862C43.5418 103.998 40.2748 99.3344 41.1384 94.4361C42.0018 89.54 46.6669 86.2749 51.5645 87.1385C56.4579 88.0013 59.725 92.6651 58.8617 97.5612Z" stroke="white" stroke-width="8" mask="url(#path-4-outside-3)"/>
<path fill-rule="evenodd" clip-rule="evenodd" d="M30.8617 97.5612C29.998 102.459 25.3329 105.725 20.4394 104.862C15.5418 103.998 12.2748 99.3344 13.1384 94.4361C14.0018 89.54 18.6669 86.2749 23.5645 87.1385C28.4579 88.0013 31.725 92.6651 30.8617 97.5612Z" stroke="white" stroke-width="8" mask="url(#path-4-outside-3)"/>
</svg>
