<svg width="120" height="120" viewBox="0 0 120 120" fill="none" xmlns="http://www.w3.org/2000/svg">
<path fill-rule="evenodd" clip-rule="evenodd" d="M81.2823 32.5075C84.8685 48.679 74.6649 64.6974 58.4935 68.2823C42.3208 71.8685 26.3026 61.6649 22.7177 45.4921C19.1314 29.3206 29.3364 13.3036 45.5064 9.71731C61.6791 6.13238 77.6974 16.3347 81.2823 32.5075Z" fill="#FFC318"/>
<mask id="path-3-outside-1" maskUnits="userSpaceOnUse" x="21" y="12" width="95" height="66" fill="black">
<rect fill="white" x="21" y="12" width="95" height="66"/>
<path d="M83.2098 73.9981C99.1413 73.8171 112 60.9035 112 45C112 28.9837 98.9583 16 82.8705 16C68.7779 16 57.0227 25.963 54.3238 39.2H42.4C32.7902 39.2 25 46.9902 25 56.6C25 66.2098 32.7902 74 42.4 74H82.9482C83.0356 74 83.1228 73.9994 83.2098 73.9981Z"/>
</mask>
<path d="M83.2098 73.9981C99.1413 73.8171 112 60.9035 112 45C112 28.9837 98.9583 16 82.8705 16C68.7779 16 57.0227 25.963 54.3238 39.2H42.4C32.7902 39.2 25 46.9902 25 56.6C25 66.2098 32.7902 74 42.4 74H82.9482C83.0356 74 83.1228 73.9994 83.2098 73.9981Z" fill="#AAAAAA"/>
<path d="M83.2098 73.9981C99.1413 73.8171 112 60.9035 112 45C112 28.9837 98.9583 16 82.8705 16C68.7779 16 57.0227 25.963 54.3238 39.2H42.4C32.7902 39.2 25 46.9902 25 56.6C25 66.2098 32.7902 74 42.4 74H82.9482C83.0356 74 83.1228 73.9994 83.2098 73.9981Z" stroke="white" stroke-width="8" mask="url(#path-3-outside-1)"/>
<mask id="path-4-outside-2" maskUnits="userSpaceOnUse" x="18" y="74" width="88" height="32" fill="black">
<rect fill="white" x="18" y="74" width="88" height="32"/>
<path fill-rule="evenodd" clip-rule="evenodd" d="M41.9658 85.9624L37.8441 86.3817L38.2634 82.0365C38.2634 79.8086 36.4525 78 34.2269 78C31.9944 78 30.1882 79.8086 30.1882 82.0365L30.6052 86.3817L26.0388 85.9624C23.8086 85.9624 22 87.7686 22 90.0012C22 92.229 23.8086 94.0376 26.0388 94.0376L30.6052 93.6183L30.1882 97.9635C30.1882 100.194 31.9944 102 34.2269 102C36.4525 102 38.2634 100.194 38.2634 97.9635L37.8441 93.6183L41.9658 94.0376C44.1937 94.0376 46 92.229 46 90.0012C46 87.7686 44.1937 85.9624 41.9658 85.9624Z"/>
<path fill-rule="evenodd" clip-rule="evenodd" d="M69.9658 85.9624L65.8441 86.3817L66.2634 82.0365C66.2634 79.8086 64.4525 78 62.2269 78C59.9944 78 58.1882 79.8086 58.1882 82.0365L58.6052 86.3817L54.0388 85.9624C51.8086 85.9624 50 87.7686 50 90.0012C50 92.229 51.8086 94.0376 54.0388 94.0376L58.6052 93.6183L58.1882 97.9635C58.1882 100.194 59.9944 102 62.2269 102C64.4525 102 66.2634 100.194 66.2634 97.9635L65.8441 93.6183L69.9658 94.0376C72.1937 94.0376 74 92.229 74 90.0012C74 87.7686 72.1937 85.9624 69.9658 85.9624Z"/>
<path fill-rule="evenodd" clip-rule="evenodd" d="M97.9658 85.9624L93.8441 86.3817L94.2634 82.0365C94.2634 79.8086 92.4525 78 90.2269 78C87.9944 78 86.1882 79.8086 86.1882 82.0365L86.6052 86.3817L82.0388 85.9624C79.8086 85.9624 78 87.7686 78 90.0012C78 92.229 79.8086 94.0376 82.0388 94.0376L86.6052 93.6183L86.1882 97.9635C86.1882 100.194 87.9944 102 90.2269 102C92.4525 102 94.2634 100.194 94.2634 97.9635L93.8441 93.6183L97.9658 94.0376C100.194 94.0376 102 92.229 102 90.0012C102 87.7686 100.194 85.9624 97.9658 85.9624Z"/>
</mask>
<path fill-rule="evenodd" clip-rule="evenodd" d="M41.9658 85.9624L37.8441 86.3817L38.2634 82.0365C38.2634 79.8086 36.4525 78 34.2269 78C31.9944 78 30.1882 79.8086 30.1882 82.0365L30.6052 86.3817L26.0388 85.9624C23.8086 85.9624 22 87.7686 22 90.0012C22 92.229 23.8086 94.0376 26.0388 94.0376L30.6052 93.6183L30.1882 97.9635C30.1882 100.194 31.9944 102 34.2269 102C36.4525 102 38.2634 100.194 38.2634 97.9635L37.8441 93.6183L41.9658 94.0376C44.1937 94.0376 46 92.229 46 90.0012C46 87.7686 44.1937 85.9624 41.9658 85.9624Z" fill="#51C2F0"/>
<path fill-rule="evenodd" clip-rule="evenodd" d="M69.9658 85.9624L65.8441 86.3817L66.2634 82.0365C66.2634 79.8086 64.4525 78 62.2269 78C59.9944 78 58.1882 79.8086 58.1882 82.0365L58.6052 86.3817L54.0388 85.9624C51.8086 85.9624 50 87.7686 50 90.0012C50 92.229 51.8086 94.0376 54.0388 94.0376L58.6052 93.6183L58.1882 97.9635C58.1882 100.194 59.9944 102 62.2269 102C64.4525 102 66.2634 100.194 66.2634 97.9635L65.8441 93.6183L69.9658 94.0376C72.1937 94.0376 74 92.229 74 90.0012C74 87.7686 72.1937 85.9624 69.9658 85.9624Z" fill="#51C2F0"/>
<path fill-rule="evenodd" clip-rule="evenodd" d="M97.9658 85.9624L93.8441 86.3817L94.2634 82.0365C94.2634 79.8086 92.4525 78 90.2269 78C87.9944 78 86.1882 79.8086 86.1882 82.0365L86.6052 86.3817L82.0388 85.9624C79.8086 85.9624 78 87.7686 78 90.0012C78 92.229 79.8086 94.0376 82.0388 94.0376L86.6052 93.6183L86.1882 97.9635C86.1882 100.194 87.9944 102 90.2269 102C92.4525 102 94.2634 100.194 94.2634 97.9635L93.8441 93.6183L97.9658 94.0376C100.194 94.0376 102 92.229 102 90.0012C102 87.7686 100.194 85.9624 97.9658 85.9624Z" fill="#51C2F0"/>
<path fill-rule="evenodd" clip-rule="evenodd" d="M41.9658 85.9624L37.8441 86.3817L38.2634 82.0365C38.2634 79.8086 36.4525 78 34.2269 78C31.9944 78 30.1882 79.8086 30.1882 82.0365L30.6052 86.3817L26.0388 85.9624C23.8086 85.9624 22 87.7686 22 90.0012C22 92.229 23.8086 94.0376 26.0388 94.0376L30.6052 93.6183L30.1882 97.9635C30.1882 100.194 31.9944 102 34.2269 102C36.4525 102 38.2634 100.194 38.2634 97.9635L37.8441 93.6183L41.9658 94.0376C44.1937 94.0376 46 92.229 46 90.0012C46 87.7686 44.1937 85.9624 41.9658 85.9624Z" stroke="white" stroke-width="8" mask="url(#path-4-outside-2)"/>
<path fill-rule="evenodd" clip-rule="evenodd" d="M69.9658 85.9624L65.8441 86.3817L66.2634 82.0365C66.2634 79.8086 64.4525 78 62.2269 78C59.9944 78 58.1882 79.8086 58.1882 82.0365L58.6052 86.3817L54.0388 85.9624C51.8086 85.9624 50 87.7686 50 90.0012C50 92.229 51.8086 94.0376 54.0388 94.0376L58.6052 93.6183L58.1882 97.9635C58.1882 100.194 59.9944 102 62.2269 102C64.4525 102 66.2634 100.194 66.2634 97.9635L65.8441 93.6183L69.9658 94.0376C72.1937 94.0376 74 92.229 74 90.0012C74 87.7686 72.1937 85.9624 69.9658 85.9624Z" stroke="white" stroke-width="8" mask="url(#path-4-outside-2)"/>
<path fill-rule="evenodd" clip-rule="evenodd" d="M97.9658 85.9624L93.8441 86.3817L94.2634 82.0365C94.2634 79.8086 92.4525 78 90.2269 78C87.9944 78 86.1882 79.8086 86.1882 82.0365L86.6052 86.3817L82.0388 85.9624C79.8086 85.9624 78 87.7686 78 90.0012C78 92.229 79.8086 94.0376 82.0388 94.0376L86.6052 93.6183L86.1882 97.9635C86.1882 100.194 87.9944 102 90.2269 102C92.4525 102 94.2634 100.194 94.2634 97.9635L93.8441 93.6183L97.9658 94.0376C100.194 94.0376 102 92.229 102 90.0012C102 87.7686 100.194 85.9624 97.9658 85.9624Z" stroke="white" stroke-width="8" mask="url(#path-4-outside-2)"/>
</svg>
