<svg width="120" height="120" viewBox="0 0 120 120" fill="none" xmlns="http://www.w3.org/2000/svg">
<g clip-path="url(#clip0)">
<mask id="path-2-outside-1" maskUnits="userSpaceOnUse" x="-1" y="0" width="112" height="68" fill="black">
<rect fill="white" x="-1" width="112" height="68"/>
<path d="M31.6001 28C34.3797 14.3066 46.4863 4 61 4C75.533 4 87.6524 14.3339 90.4109 28.0545C99.6926 28.7741 107 36.5337 107 46C107 55.9411 98.9411 64 89 64H21C11.0589 64 3 55.9411 3 46C3 36.0589 11.0589 28 21 28H31.6001Z"/>
</mask>
<path d="M31.6001 28C34.3797 14.3066 46.4863 4 61 4C75.533 4 87.6524 14.3339 90.4109 28.0545C99.6926 28.7741 107 36.5337 107 46C107 55.9411 98.9411 64 89 64H21C11.0589 64 3 55.9411 3 46C3 36.0589 11.0589 28 21 28H31.6001Z" fill="#AAAAAA"/>
<path d="M31.6001 28C34.3797 14.3066 46.4863 4 61 4C75.533 4 87.6524 14.3339 90.4109 28.0545C99.6926 28.7741 107 36.5337 107 46C107 55.9411 98.9411 64 89 64H21C11.0589 64 3 55.9411 3 46C3 36.0589 11.0589 28 21 28H31.6001Z" stroke="white" stroke-width="8" mask="url(#path-2-outside-1)"/>
<path d="M16.3351 105.5C16.8777 104.62 31.4832 75 31.4832 75M43.1775 105.5C43.7201 104.621 58.3255 75.0001 58.3255 75.0001M69.7081 105.5C70.2507 104.621 84.8561 75.0001 84.8561 75.0001" stroke="#51C2F0" stroke-width="8" stroke-linecap="round" stroke-linejoin="round"/>
<mask id="path-4-outside-2" maskUnits="userSpaceOnUse" x="8" y="86" width="79" height="28" fill="black">
<rect fill="white" x="8" y="86" width="79" height="28"/>
<path fill-rule="evenodd" clip-rule="evenodd" d="M30.8617 101.561C29.998 106.459 25.3329 109.725 20.4394 108.862C15.5418 107.998 12.2748 103.334 13.1384 98.4361C14.0018 93.54 18.6669 90.2749 23.5645 91.1385C28.4579 92.0013 31.725 96.6651 30.8617 101.561Z"/>
<path fill-rule="evenodd" clip-rule="evenodd" d="M55.8617 101.561C54.998 106.459 50.3329 109.725 45.4394 108.862C40.5418 107.998 37.2748 103.334 38.1384 98.4361C39.0018 93.54 43.6669 90.2749 48.5645 91.1385C53.4579 92.0013 56.725 96.6651 55.8617 101.561Z"/>
<path fill-rule="evenodd" clip-rule="evenodd" d="M81.8617 101.561C80.998 106.459 76.3329 109.725 71.4394 108.862C66.5418 107.998 63.2748 103.334 64.1384 98.4361C65.0018 93.54 69.6669 90.2749 74.5645 91.1385C79.4579 92.0013 82.725 96.6651 81.8617 101.561Z"/>
</mask>
<path fill-rule="evenodd" clip-rule="evenodd" d="M30.8617 101.561C29.998 106.459 25.3329 109.725 20.4394 108.862C15.5418 107.998 12.2748 103.334 13.1384 98.4361C14.0018 93.54 18.6669 90.2749 23.5645 91.1385C28.4579 92.0013 31.725 96.6651 30.8617 101.561Z" fill="#51C2F0"/>
<path fill-rule="evenodd" clip-rule="evenodd" d="M55.8617 101.561C54.998 106.459 50.3329 109.725 45.4394 108.862C40.5418 107.998 37.2748 103.334 38.1384 98.4361C39.0018 93.54 43.6669 90.2749 48.5645 91.1385C53.4579 92.0013 56.725 96.6651 55.8617 101.561Z" fill="#51C2F0"/>
<path fill-rule="evenodd" clip-rule="evenodd" d="M81.8617 101.561C80.998 106.459 76.3329 109.725 71.4394 108.862C66.5418 107.998 63.2748 103.334 64.1384 98.4361C65.0018 93.54 69.6669 90.2749 74.5645 91.1385C79.4579 92.0013 82.725 96.6651 81.8617 101.561Z" fill="#51C2F0"/>
<path fill-rule="evenodd" clip-rule="evenodd" d="M30.8617 101.561C29.998 106.459 25.3329 109.725 20.4394 108.862C15.5418 107.998 12.2748 103.334 13.1384 98.4361C14.0018 93.54 18.6669 90.2749 23.5645 91.1385C28.4579 92.0013 31.725 96.6651 30.8617 101.561Z" stroke="white" stroke-width="8" mask="url(#path-4-outside-2)"/>
<path fill-rule="evenodd" clip-rule="evenodd" d="M55.8617 101.561C54.998 106.459 50.3329 109.725 45.4394 108.862C40.5418 107.998 37.2748 103.334 38.1384 98.4361C39.0018 93.54 43.6669 90.2749 48.5645 91.1385C53.4579 92.0013 56.725 96.6651 55.8617 101.561Z" stroke="white" stroke-width="8" mask="url(#path-4-outside-2)"/>
<path fill-rule="evenodd" clip-rule="evenodd" d="M81.8617 101.561C80.998 106.459 76.3329 109.725 71.4394 108.862C66.5418 107.998 63.2748 103.334 64.1384 98.4361C65.0018 93.54 69.6669 90.2749 74.5645 91.1385C79.4579 92.0013 82.725 96.6651 81.8617 101.561Z" stroke="white" stroke-width="8" mask="url(#path-4-outside-2)"/>
</g>
<defs>
<clipPath id="clip0">
<rect width="120" height="120" fill="white"/>
</clipPath>
</defs>
</svg>
