<svg width="120" height="120" viewBox="0 0 120 120" fill="none" xmlns="http://www.w3.org/2000/svg">
<path fill-rule="evenodd" clip-rule="evenodd" d="M72.2823 31.5075C75.8685 47.679 65.6649 63.6974 49.4935 67.2823C33.3208 70.8685 17.3026 60.6649 13.7177 44.4921C10.1314 28.3206 20.3364 12.3036 36.5064 8.71731C52.6791 5.13238 68.6974 15.3347 72.2823 31.5075Z" fill="#FFC318"/>
<mask id="path-3-outside-1" maskUnits="userSpaceOnUse" x="15" y="7" width="95" height="66" fill="black">
<rect fill="white" x="15" y="7" width="95" height="66"/>
<path d="M77.2098 68.9981C93.1413 68.8171 106 55.9035 106 40C106 23.9837 92.9583 11 76.8705 11C62.7779 11 51.0227 20.963 48.3238 34.2H36.4C26.7902 34.2 19 41.9902 19 51.6C19 61.2098 26.7902 69 36.4 69H76.9482C77.0356 69 77.1228 68.9994 77.2098 68.9981Z"/>
</mask>
<path d="M77.2098 68.9981C93.1413 68.8171 106 55.9035 106 40C106 23.9837 92.9583 11 76.8705 11C62.7779 11 51.0227 20.963 48.3238 34.2H36.4C26.7902 34.2 19 41.9902 19 51.6C19 61.2098 26.7902 69 36.4 69H76.9482C77.0356 69 77.1228 68.9994 77.2098 68.9981Z" fill="#AAAAAA"/>
<path d="M77.2098 68.9981C93.1413 68.8171 106 55.9035 106 40C106 23.9837 92.9583 11 76.8705 11C62.7779 11 51.0227 20.963 48.3238 34.2H36.4C26.7902 34.2 19 41.9902 19 51.6C19 61.2098 26.7902 69 36.4 69H76.9482C77.0356 69 77.1228 68.9994 77.2098 68.9981Z" stroke="white" stroke-width="8" mask="url(#path-3-outside-1)"/>
<mask id="path-4-outside-2" maskUnits="userSpaceOnUse" x="42" y="41" width="52" height="79" fill="black">
<rect fill="white" x="42" y="41" width="52" height="79"/>
<path fill-rule="evenodd" clip-rule="evenodd" d="M79.2175 46.1729C81.3313 47.9498 81.6043 51.1038 79.8273 53.2176L61.7355 74.7382L85.0001 74.7382C86.8655 74.7382 88.5758 75.7767 89.4363 77.4318C90.2968 79.0869 90.1644 81.0834 89.0928 82.6103L67.5056 113.372C65.9193 115.633 62.801 116.179 60.5406 114.593C58.2803 113.007 57.7337 109.888 59.32 107.628L75.383 84.7382L51.0001 84.7382C49.0561 84.7382 47.2883 83.6114 46.4676 81.8492C45.6468 80.087 45.9219 78.0088 47.1728 76.5207L72.1728 46.7826C73.9498 44.6689 77.1038 44.3959 79.2175 46.1729Z"/>
</mask>
<path fill-rule="evenodd" clip-rule="evenodd" d="M79.2175 46.1729C81.3313 47.9498 81.6043 51.1038 79.8273 53.2176L61.7355 74.7382L85.0001 74.7382C86.8655 74.7382 88.5758 75.7767 89.4363 77.4318C90.2968 79.0869 90.1644 81.0834 89.0928 82.6103L67.5056 113.372C65.9193 115.633 62.801 116.179 60.5406 114.593C58.2803 113.007 57.7337 109.888 59.32 107.628L75.383 84.7382L51.0001 84.7382C49.0561 84.7382 47.2883 83.6114 46.4676 81.8492C45.6468 80.087 45.9219 78.0088 47.1728 76.5207L72.1728 46.7826C73.9498 44.6689 77.1038 44.3959 79.2175 46.1729Z" fill="#F7DB53"/>
<path fill-rule="evenodd" clip-rule="evenodd" d="M79.2175 46.1729C81.3313 47.9498 81.6043 51.1038 79.8273 53.2176L61.7355 74.7382L85.0001 74.7382C86.8655 74.7382 88.5758 75.7767 89.4363 77.4318C90.2968 79.0869 90.1644 81.0834 89.0928 82.6103L67.5056 113.372C65.9193 115.633 62.801 116.179 60.5406 114.593C58.2803 113.007 57.7337 109.888 59.32 107.628L75.383 84.7382L51.0001 84.7382C49.0561 84.7382 47.2883 83.6114 46.4676 81.8492C45.6468 80.087 45.9219 78.0088 47.1728 76.5207L72.1728 46.7826C73.9498 44.6689 77.1038 44.3959 79.2175 46.1729Z" stroke="white" stroke-width="8" stroke-linecap="round" stroke-linejoin="round" mask="url(#path-4-outside-2)"/>
</svg>
