<svg width="120" height="120" viewBox="0 0 120 120" fill="none" xmlns="http://www.w3.org/2000/svg">
<path fill-rule="evenodd" clip-rule="evenodd" d="M80.388 25.8842C89.0874 31.0228 95.858 39.4404 98.6796 49.9708C103.972 69.7231 93.5152 89.9851 75.0065 97.4235C74.4921 97.757 73.9173 98.0168 73.2931 98.1841L70.4591 98.9434C70.4379 98.9492 70.4166 98.9549 70.3953 98.9606C70.3741 98.9663 70.3528 98.972 70.3315 98.9776L31.7583 109.313C28.5575 110.171 25.2675 108.271 24.4098 105.071C23.5522 101.87 25.4517 98.5798 28.6525 97.7222L39.6971 94.7628C30.9977 89.6243 24.2271 81.2066 21.4055 70.6763C15.7585 49.6014 28.041 27.9462 48.9027 21.9059C49.0027 21.8734 49.1041 21.8434 49.2069 21.8159L90.7417 10.6866C93.9425 9.829 97.2325 11.7285 98.0901 14.9293C98.9478 18.1301 97.0483 21.4201 93.8475 22.2778L80.388 25.8842ZM75.4974 56.1824C77.7845 64.7179 72.7191 73.4913 64.1837 75.7784C55.6482 78.0654 46.8748 73.0001 44.5878 64.4647C42.3007 55.9292 47.366 47.1558 55.9015 44.8687C64.4369 42.5817 73.2103 47.647 75.4974 56.1824Z" fill="#314A62"/>
</svg>
