<svg width="120" height="120" viewBox="0 0 120 120" fill="none" xmlns="http://www.w3.org/2000/svg">
<rect width="120" height="120" fill="white"/>
<mask id="path-2-outside-1" maskUnits="userSpaceOnUse" x="9" y="13" width="103" height="94" fill="black">
<rect fill="white" x="9" y="13" width="103" height="94"/>
<path fill-rule="evenodd" clip-rule="evenodd" d="M21.2968 52.3507C22.2575 49.7443 25.2635 48.3702 28.011 49.2815C31.6654 50.4938 40.2061 52.6359 60.0643 52.9511C80.617 53.2782 88.0715 51.927 92.2284 50.756C95.0186 49.97 97.9521 51.4786 98.7806 54.1255C99.6091 56.7724 98.0189 59.5553 95.2287 60.3413C89.549 61.9412 80.8409 63.2822 59.8877 62.9487C39.3167 62.6222 29.5785 60.3941 24.532 58.7201C21.7846 57.8088 20.3361 54.9571 21.2968 52.3507Z"/>
<path fill-rule="evenodd" clip-rule="evenodd" d="M29.3822 69.8663C30.4394 67.4977 33.3643 66.3733 35.9152 67.3549C38.6521 68.408 45.3075 70.3787 61.08 70.6691C77.46 70.9716 83.2319 69.7171 86.3391 68.7018C88.9438 67.8506 91.7984 69.1212 92.7151 71.5397C93.6318 73.9583 92.2633 76.6088 89.6586 77.46C84.8918 79.0176 77.7258 80.2631 60.8814 79.9521C44.2912 79.6466 36.315 77.5592 32.087 75.9323C29.536 74.9507 28.3251 72.2349 29.3822 69.8663Z"/>
<path fill-rule="evenodd" clip-rule="evenodd" d="M29.9283 86.4051C30.7454 84.1517 33.5427 82.9552 36.1763 83.7326C37.6742 84.1748 41.3802 85.1055 50.2798 86.1297C59.51 87.1921 62.8199 87.2023 64.6049 87.1155C67.3518 86.982 69.7739 88.8031 70.0147 91.1831C70.2555 93.5631 68.224 95.6007 65.477 95.7343C62.758 95.8664 58.7166 95.7734 49.2686 94.6859C39.9744 93.6163 35.5626 92.5851 33.2175 91.8929C30.5839 91.1154 29.1113 88.6585 29.9283 86.4051Z"/>
<path fill-rule="evenodd" clip-rule="evenodd" d="M36.1158 101.131C35.8958 102.284 33.6808 102.829 31.1678 102.349C28.6548 101.868 26.7968 100.545 27.0178 99.3929C27.2378 98.2389 29.4518 97.6939 31.9658 98.1749C34.4788 98.6549 36.3368 99.9789 36.1158 101.131Z"/>
<path fill-rule="evenodd" clip-rule="evenodd" d="M25.2413 31.0006C25.8405 31.2883 26.5666 31.5957 27.4421 31.9111C32.9207 33.8845 43.3585 35.8533 62.5078 35.8671C81.7667 35.8815 90.9738 34.0243 95.1935 32.2889C95.4162 32.1973 95.62 32.1081 95.8064 32.0217C94.9268 31.6248 93.7855 31.186 92.3299 30.7379C86.5104 28.9462 76.3627 27.2161 59.6715 27.0167C42.9904 26.818 33.1135 28.4219 27.6038 30.1498C26.6759 30.4408 25.8946 30.7284 25.2413 31.0006ZM24.6113 20.6081C31.5138 18.4433 42.5548 16.8121 59.7907 17.0174C77.0155 17.2231 88.2059 19.005 95.2724 21.1806C98.7952 22.2651 101.47 23.501 103.388 24.8201C104.344 25.4781 105.233 26.2391 105.94 27.1221C106.584 27.9265 107.424 29.2676 107.509 31.0248L107.509 31.0271C107.574 32.3691 107.373 34.4486 105.838 36.6079C104.397 38.6354 102.116 40.2547 98.9971 41.5373C92.8815 44.0524 82.0295 45.8817 62.5004 45.8671C42.8637 45.8529 31.1031 43.8587 24.0532 41.3194C20.5137 40.0444 17.944 38.5553 16.1619 36.9176C14.4553 35.3492 13.1182 33.2913 13.0068 30.9518C12.9232 29.1959 13.6235 27.7752 14.2401 26.8699C14.899 25.9024 15.7596 25.0757 16.6906 24.3714C18.5531 22.9624 21.1691 21.6876 24.6113 20.6081Z"/>
</mask>
<path fill-rule="evenodd" clip-rule="evenodd" d="M21.2968 52.3507C22.2575 49.7443 25.2635 48.3702 28.011 49.2815C31.6654 50.4938 40.2061 52.6359 60.0643 52.9511C80.617 53.2782 88.0715 51.927 92.2284 50.756C95.0186 49.97 97.9521 51.4786 98.7806 54.1255C99.6091 56.7724 98.0189 59.5553 95.2287 60.3413C89.549 61.9412 80.8409 63.2822 59.8877 62.9487C39.3167 62.6222 29.5785 60.3941 24.532 58.7201C21.7846 57.8088 20.3361 54.9571 21.2968 52.3507Z" fill="#7A6D70"/>
<path fill-rule="evenodd" clip-rule="evenodd" d="M29.3822 69.8663C30.4394 67.4977 33.3643 66.3733 35.9152 67.3549C38.6521 68.408 45.3075 70.3787 61.08 70.6691C77.46 70.9716 83.2319 69.7171 86.3391 68.7018C88.9438 67.8506 91.7984 69.1212 92.7151 71.5397C93.6318 73.9583 92.2633 76.6088 89.6586 77.46C84.8918 79.0176 77.7258 80.2631 60.8814 79.9521C44.2912 79.6466 36.315 77.5592 32.087 75.9323C29.536 74.9507 28.3251 72.2349 29.3822 69.8663Z" fill="#7A6D70"/>
<path fill-rule="evenodd" clip-rule="evenodd" d="M29.9283 86.4051C30.7454 84.1517 33.5427 82.9552 36.1763 83.7326C37.6742 84.1748 41.3802 85.1055 50.2798 86.1297C59.51 87.1921 62.8199 87.2023 64.6049 87.1155C67.3518 86.982 69.7739 88.8031 70.0147 91.1831C70.2555 93.5631 68.224 95.6007 65.477 95.7343C62.758 95.8664 58.7166 95.7734 49.2686 94.6859C39.9744 93.6163 35.5626 92.5851 33.2175 91.8929C30.5839 91.1154 29.1113 88.6585 29.9283 86.4051Z" fill="#7A6D70"/>
<path fill-rule="evenodd" clip-rule="evenodd" d="M36.1158 101.131C35.8958 102.284 33.6808 102.829 31.1678 102.349C28.6548 101.868 26.7968 100.545 27.0178 99.3929C27.2378 98.2389 29.4518 97.6939 31.9658 98.1749C34.4788 98.6549 36.3368 99.9789 36.1158 101.131Z" fill="#7A6D70"/>
<path fill-rule="evenodd" clip-rule="evenodd" d="M25.2413 31.0006C25.8405 31.2883 26.5666 31.5957 27.4421 31.9111C32.9207 33.8845 43.3585 35.8533 62.5078 35.8671C81.7667 35.8815 90.9738 34.0243 95.1935 32.2889C95.4162 32.1973 95.62 32.1081 95.8064 32.0217C94.9268 31.6248 93.7855 31.186 92.3299 30.7379C86.5104 28.9462 76.3627 27.2161 59.6715 27.0167C42.9904 26.818 33.1135 28.4219 27.6038 30.1498C26.6759 30.4408 25.8946 30.7284 25.2413 31.0006ZM24.6113 20.6081C31.5138 18.4433 42.5548 16.8121 59.7907 17.0174C77.0155 17.2231 88.2059 19.005 95.2724 21.1806C98.7952 22.2651 101.47 23.501 103.388 24.8201C104.344 25.4781 105.233 26.2391 105.94 27.1221C106.584 27.9265 107.424 29.2676 107.509 31.0248L107.509 31.0271C107.574 32.3691 107.373 34.4486 105.838 36.6079C104.397 38.6354 102.116 40.2547 98.9971 41.5373C92.8815 44.0524 82.0295 45.8817 62.5004 45.8671C42.8637 45.8529 31.1031 43.8587 24.0532 41.3194C20.5137 40.0444 17.944 38.5553 16.1619 36.9176C14.4553 35.3492 13.1182 33.2913 13.0068 30.9518C12.9232 29.1959 13.6235 27.7752 14.2401 26.8699C14.899 25.9024 15.7596 25.0757 16.6906 24.3714C18.5531 22.9624 21.1691 21.6876 24.6113 20.6081Z" fill="#7A6D70"/>
<path d="M21.2968 52.3507L17.5436 50.9673L17.5436 50.9673L21.2968 52.3507ZM28.011 49.2815L29.2704 45.485L29.2704 45.485L28.011 49.2815ZM60.0643 52.9511L60.1279 48.9517L60.1278 48.9516L60.0643 52.9511ZM92.2284 50.756L93.3129 54.6062L93.3129 54.6062L92.2284 50.756ZM98.7806 54.1255L102.598 52.9307L102.598 52.9307L98.7806 54.1255ZM95.2287 60.3413L94.1441 56.4911L94.1441 56.4911L95.2287 60.3413ZM59.8877 62.9487L59.9514 58.9492L59.9512 58.9492L59.8877 62.9487ZM24.532 58.7201L25.7914 54.9236L25.7914 54.9236L24.532 58.7201ZM35.9152 67.3549L37.3517 63.6217L37.3517 63.6217L35.9152 67.3549ZM61.08 70.6691L61.1538 66.6698L61.1536 66.6698L61.08 70.6691ZM86.3391 68.7018L85.0966 64.8996L85.0966 64.8996L86.3391 68.7018ZM89.6586 77.46L88.4162 73.6578L88.4162 73.6578L89.6586 77.46ZM60.8814 79.9521L60.9553 75.9528L60.9551 75.9528L60.8814 79.9521ZM32.087 75.9323L33.5235 72.1991L33.5235 72.1991L32.087 75.9323ZM36.1763 83.7326L37.3088 79.8963L37.3088 79.8963L36.1763 83.7326ZM50.2798 86.1297L50.7372 82.1559L50.7371 82.1559L50.2798 86.1297ZM64.6049 87.1155L64.4107 83.1203L64.4107 83.1203L64.6049 87.1155ZM65.477 95.7343L65.6713 99.7295L65.6713 99.7295L65.477 95.7343ZM49.2686 94.6859L49.726 90.7121L49.7259 90.7121L49.2686 94.6859ZM33.2175 91.8929L34.35 88.0565L34.35 88.0565L33.2175 91.8929ZM36.1158 101.131L32.1875 100.377L32.1867 100.381L36.1158 101.131ZM31.1678 102.349L30.4159 106.278L30.4174 106.278L31.1678 102.349ZM27.0178 99.3929L30.9462 100.147L30.9471 100.142L27.0178 99.3929ZM31.9658 98.1749L31.2142 102.104L31.2154 102.104L31.9658 98.1749ZM25.2413 31.0006L23.7025 27.3085L15.4617 30.7431L23.5103 34.6067L25.2413 31.0006ZM27.4421 31.9111L28.7976 28.1478L28.7976 28.1478L27.4421 31.9111ZM62.5078 35.8671L62.5108 31.8671L62.5107 31.8671L62.5078 35.8671ZM95.1935 32.2889L93.6721 28.5895L93.6721 28.5895L95.1935 32.2889ZM95.8064 32.0217L97.4873 35.6514L105.427 31.9745L97.4516 28.3757L95.8064 32.0217ZM92.3299 30.7379L93.5069 26.9149L93.5069 26.9149L92.3299 30.7379ZM59.6715 27.0167L59.7192 23.017L59.7191 23.017L59.6715 27.0167ZM27.6038 30.1498L28.8008 33.9665L28.8008 33.9665L27.6038 30.1498ZM24.6113 20.6081L23.4143 16.7914L24.6113 20.6081ZM59.7907 17.0174L59.8385 13.0177L59.8384 13.0177L59.7907 17.0174ZM95.2724 21.1806L94.0954 25.0035L95.2724 21.1806ZM103.388 24.8201L101.121 28.1157L101.121 28.1157L103.388 24.8201ZM105.94 27.1221L102.817 29.6221L102.817 29.6221L105.94 27.1221ZM107.509 31.0248L103.514 31.2186L103.514 31.2197L107.509 31.0248ZM107.509 31.0271L111.505 30.8352L111.505 30.8322L107.509 31.0271ZM105.838 36.6079L102.578 34.2901L102.578 34.2901L105.838 36.6079ZM98.9971 41.5373L100.518 45.2367L100.518 45.2367L98.9971 41.5373ZM62.5004 45.8671L62.5034 41.8671L62.5033 41.8671L62.5004 45.8671ZM24.0532 41.3194L25.4088 37.556L25.4088 37.556L24.0532 41.3194ZM16.1619 36.9176L18.8685 33.9724L18.8685 33.9724L16.1619 36.9176ZM13.0068 30.9518L9.01134 31.142L9.01134 31.142L13.0068 30.9518ZM14.2401 26.8699L17.5462 29.1215L14.2401 26.8699ZM16.6906 24.3714L19.1039 27.5614L19.1039 27.5614L16.6906 24.3714ZM25.05 53.7341C25.2137 53.2899 25.9106 52.7991 26.7516 53.0781L29.2704 45.485C24.6165 43.9412 19.3013 46.1987 17.5436 50.9673L25.05 53.7341ZM26.7516 53.0781C30.9134 54.4586 39.8874 56.6314 60.0008 56.9506L60.1278 48.9516C40.5248 48.6405 32.4175 46.5289 29.2704 45.485L26.7516 53.0781ZM60.0006 56.9506C80.6959 57.28 88.6033 55.9329 93.3129 54.6062L91.1438 46.9059C87.5397 47.9211 80.5381 49.2765 60.1279 48.9517L60.0006 56.9506ZM93.3129 54.6062C94.1751 54.3633 94.8284 54.8895 94.9632 55.3204L102.598 52.9307C101.076 48.0677 95.8621 45.5768 91.1438 46.9059L93.3129 54.6062ZM94.9632 55.3204C95.0287 55.5297 95.0075 55.7388 94.8887 55.9467C94.7667 56.1602 94.5294 56.3826 94.1441 56.4911L96.3132 64.1915C101.104 62.8419 104.151 57.8929 102.598 52.9307L94.9632 55.3204ZM94.1441 56.4911C89.0168 57.9355 80.7611 59.2804 59.9514 58.9492L59.8241 66.9482C80.9206 67.2839 90.0812 65.947 96.3133 64.1915L94.1441 56.4911ZM59.9512 58.9492C39.6355 58.6267 30.3306 56.4292 25.7914 54.9236L23.2727 62.5167C28.8264 64.3589 38.9978 66.6176 59.8242 66.9482L59.9512 58.9492ZM25.7914 54.9236C25.4172 54.7994 25.1978 54.5714 25.0902 54.3596C24.9854 54.1534 24.9721 53.9452 25.05 53.7341L17.5436 50.9673C15.7452 55.8464 18.5361 60.9455 23.2727 62.5167L25.7914 54.9236ZM33.0349 71.4966C33.0899 71.3733 33.2295 71.2011 33.5238 71.0879C33.819 70.9745 34.164 70.967 34.4787 71.0881L37.3517 63.6217C32.9877 61.9425 27.7273 63.76 25.7295 68.236L33.0349 71.4966ZM34.4787 71.0881C37.7823 72.3592 44.933 74.3725 61.0063 74.6685L61.1536 66.6698C45.6821 66.3849 39.5218 64.4568 37.3517 63.6217L34.4787 71.0881ZM61.0061 74.6685C77.5556 74.974 83.8484 73.7238 87.5815 72.5039L85.0966 64.8996C82.6154 65.7104 77.3645 66.9691 61.1538 66.6698L61.0061 74.6685ZM87.5815 72.5039C87.9105 72.3964 88.2538 72.4245 88.5335 72.549C88.8119 72.6729 88.9314 72.843 88.9747 72.9574L96.4554 70.1221C94.7104 65.5181 89.5366 63.4487 85.0966 64.8996L87.5815 72.5039ZM88.9747 72.9574C89.0116 73.0547 89.0108 73.141 88.9531 73.2526C88.8908 73.3734 88.7373 73.5529 88.4162 73.6578L90.9011 81.2621C95.4497 79.7758 98.2625 74.8898 96.4554 70.1221L88.9747 72.9574ZM88.4162 73.6578C84.2748 75.0111 77.6292 76.2606 60.9553 75.9528L60.8076 83.9514C77.8225 84.2655 85.5089 83.0241 90.9011 81.2621L88.4162 73.6578ZM60.9551 75.9528C44.6658 75.6528 37.1848 73.608 33.5235 72.1991L30.6505 79.6655C35.4453 81.5105 43.9167 83.6404 60.8078 83.9514L60.9551 75.9528ZM33.5235 72.1991C33.2179 72.0816 33.0851 71.9032 33.0349 71.7905C32.9886 71.6868 32.9881 71.6014 33.0349 71.4966L25.7295 68.236C23.6524 72.8898 26.1629 77.9387 30.6505 79.6655L33.5235 72.1991ZM33.6888 87.7685C33.6628 87.8402 33.6666 87.7287 33.9441 87.61C34.2206 87.4917 34.6216 87.4443 35.0438 87.569L37.3088 79.8963C33.1097 78.6567 27.8595 80.3762 26.1679 85.0416L33.6888 87.7685ZM35.0438 87.569C36.8373 88.0984 40.7878 89.0637 49.8225 90.1035L50.7371 82.1559C41.9726 81.1473 38.5111 80.2512 37.3088 79.8963L35.0438 87.569ZM49.8224 90.1034C59.1266 91.1744 62.6895 91.2134 64.7991 91.1108L64.4107 83.1203C62.9503 83.1913 59.8934 83.2098 50.7372 82.1559L49.8224 90.1034ZM64.7991 91.1108C65.2437 91.0892 65.6161 91.2312 65.8457 91.4039C66.0752 91.5764 66.0438 91.6723 66.035 91.5858L73.9944 90.7804C73.4922 85.8178 68.782 82.9078 64.4107 83.1203L64.7991 91.1108ZM66.035 91.5858C66.0316 91.5519 66.0372 91.5041 66.052 91.4651C66.0645 91.4321 66.0698 91.4406 66.0337 91.4769C65.9583 91.5525 65.7239 91.7175 65.2828 91.739L65.6713 99.7295C70.1209 99.5132 74.521 95.9844 73.9944 90.7804L66.035 91.5858ZM65.2828 91.739C62.888 91.8554 59.0992 91.791 49.726 90.7121L48.8112 98.6597C58.334 99.7558 62.6281 99.8775 65.6713 99.7295L65.2828 91.739ZM49.7259 90.7121C40.567 89.6581 36.3996 88.6616 34.35 88.0565L32.085 95.7292C34.7255 96.5087 39.3819 97.5745 48.8113 98.6597L49.7259 90.7121ZM34.35 88.0565C33.932 87.9331 33.7562 87.7235 33.7098 87.6461C33.6875 87.6088 33.6965 87.6077 33.701 87.647C33.7062 87.6923 33.6991 87.74 33.6888 87.7685L26.1679 85.0416C24.3809 89.9702 27.7961 94.4631 32.085 95.7292L34.35 88.0565ZM32.1867 100.381C32.3675 99.4336 32.923 98.8826 33.223 98.6604C33.4979 98.4569 33.6586 98.4404 33.5457 98.4682C33.3269 98.5221 32.7418 98.5773 31.9183 98.42L30.4174 106.278C32.1068 106.601 33.8858 106.623 35.4577 106.236C36.6581 105.941 39.4638 104.926 40.045 101.881L32.1867 100.381ZM31.9198 98.4202C31.0958 98.2625 30.5719 97.9953 30.3881 97.8644C30.2932 97.7969 30.4367 97.8715 30.6173 98.1623C30.8145 98.4796 31.1282 99.1977 30.9462 100.147L23.0895 98.6393C22.5049 101.686 24.7415 103.664 25.7471 104.381C27.0653 105.32 28.7269 105.954 30.4159 106.278L31.9198 98.4202ZM30.9471 100.142C30.7667 101.088 30.2125 101.639 29.9119 101.862C29.6366 102.066 29.4753 102.083 29.5877 102.055C29.8055 102.001 30.39 101.946 31.2142 102.104L32.7175 94.2462C31.0276 93.9229 29.2481 93.8996 27.6755 94.2867C26.4725 94.5829 23.6691 95.5987 23.0886 98.6438L30.9471 100.142ZM31.2154 102.104C32.0384 102.261 32.5617 102.528 32.7452 102.659C32.84 102.726 32.6966 102.652 32.5161 102.361C32.3192 102.044 32.0055 101.326 32.1875 100.377L40.0442 101.885C40.6287 98.838 38.3928 96.8596 37.3869 96.1431C36.0684 95.2038 34.4063 94.5688 32.7163 94.2459L31.2154 102.104ZM23.5103 34.6067C24.2429 34.9583 25.0952 35.3173 26.0866 35.6744L28.7976 28.1478C28.0379 27.8741 27.4382 27.6182 26.9724 27.3946L23.5103 34.6067ZM26.0866 35.6744C32.1939 37.8742 43.1609 39.8531 62.5049 39.8671L62.5107 31.8671C43.556 31.8534 33.6476 29.8947 28.7976 28.1478L26.0866 35.6744ZM62.5048 39.8671C81.8705 39.8816 91.7363 38.0358 96.7149 35.9882L93.6721 28.5895C90.2113 30.0128 81.6629 31.8814 62.5108 31.8671L62.5048 39.8671ZM96.7149 35.9883C96.9889 35.8756 97.246 35.7632 97.4873 35.6514L94.1256 28.392C93.994 28.453 93.8434 28.5191 93.6721 28.5895L96.7149 35.9883ZM97.4516 28.3757C96.4 27.9012 95.0999 27.4054 93.5069 26.9149L91.153 34.5608C92.4711 34.9666 93.4537 35.3485 94.1613 35.6678L97.4516 28.3757ZM93.5069 26.9149C87.1885 24.9697 76.6238 23.2189 59.7192 23.017L59.6237 31.0165C76.1016 31.2132 85.8323 32.9227 91.153 34.5608L93.5069 26.9149ZM59.7191 23.017C42.8162 22.8157 32.4737 24.4304 26.4068 26.3331L28.8008 33.9665C33.7533 32.4133 43.1645 30.8204 59.6238 31.0165L59.7191 23.017ZM26.4068 26.3331C25.3735 26.6572 24.4774 26.9855 23.7025 27.3085L26.7801 34.6928C27.3118 34.4712 27.9783 34.2245 28.8008 33.9665L26.4068 26.3331ZM25.8083 24.4248C32.1538 22.4347 42.7292 20.8145 59.7431 21.0172L59.8384 13.0177C42.3804 12.8098 30.8739 14.4519 23.4143 16.7914L25.8083 24.4248ZM59.743 21.0172C76.7542 21.2203 87.5277 22.9815 94.0954 25.0035L96.4494 17.3576C88.8842 15.0285 77.2768 13.226 59.8385 13.0177L59.743 21.0172ZM94.0954 25.0035C97.377 26.0138 99.644 27.0999 101.121 28.1157L105.655 21.5245C103.296 19.902 100.213 18.5165 96.4494 17.3576L94.0954 25.0035ZM101.121 28.1157C101.858 28.6232 102.423 29.1296 102.817 29.6221L109.062 24.6221C108.043 23.3486 106.83 22.333 105.655 21.5245L101.121 28.1157ZM102.817 29.6221C103.202 30.1022 103.486 30.6474 103.514 31.2186L111.505 30.8309C111.362 27.8878 109.966 25.7508 109.062 24.6221L102.817 29.6221ZM103.514 31.2197L103.514 31.222L111.505 30.8322L111.505 30.8299L103.514 31.2197ZM103.514 31.2191C103.549 31.9383 103.455 33.0563 102.578 34.2901L109.098 38.9257C111.291 35.8408 111.599 32.8 111.505 30.8352L103.514 31.2191ZM102.578 34.2901C101.718 35.5001 100.168 36.7307 97.4756 37.8379L100.518 45.2367C104.064 43.7786 107.075 41.7708 109.098 38.9257L102.578 34.2901ZM97.4756 37.8379C92.1179 40.0414 81.9233 41.8816 62.5034 41.8671L62.4974 49.8671C82.1356 49.8818 93.6452 48.0634 100.518 45.2367L97.4756 37.8379ZM62.5033 41.8671C43.0619 41.8531 31.8303 39.8691 25.4088 37.556L22.6977 45.0827C30.3759 47.8483 42.6656 49.8528 62.4975 49.8671L62.5033 41.8671ZM25.4088 37.556C22.1951 36.3985 20.1425 35.1431 18.8685 33.9724L13.4553 39.8628C15.7456 41.9675 18.8323 43.6904 22.6977 45.0827L25.4088 37.556ZM18.8685 33.9724C17.6013 32.8078 17.0454 31.667 17.0023 30.7616L9.01134 31.142C9.19096 34.9156 11.3093 37.8907 13.4553 39.8628L18.8685 33.9724ZM17.0023 30.7616C16.9752 30.1921 17.2012 29.628 17.5462 29.1215L10.9341 24.6182C10.0458 25.9224 8.8713 28.1998 9.01134 31.142L17.0023 30.7616ZM17.5462 29.1215C17.8961 28.6078 18.4147 28.0827 19.1039 27.5614L14.2772 21.1814C13.1045 22.0686 11.902 23.197 10.9341 24.6182L17.5462 29.1215ZM19.1039 27.5614C20.4824 26.5185 22.6376 25.4192 25.8083 24.4248L23.4143 16.7914C19.7007 17.956 16.6237 19.4062 14.2772 21.1814L19.1039 27.5614Z" fill="white" mask="url(#path-2-outside-1)"/>
</svg>
