<svg width="120" height="120" viewBox="0 0 120 120" fill="none" xmlns="http://www.w3.org/2000/svg">
<path fill-rule="evenodd" clip-rule="evenodd" d="M89.2823 42.5075C92.8685 58.679 82.6649 74.6974 66.4935 78.2823C50.3208 81.8685 34.3026 71.6649 30.7177 55.4921C27.1314 39.3206 37.3364 23.3036 53.5064 19.7173C69.6791 16.1324 85.6974 26.3347 89.2823 42.5075Z" fill="#FFC318"/>
<path d="M105.792 82.535C101.049 82.6756 96.3551 81.5363 92.1988 79.2356C86.9046 76.3586 80.9621 74.9018 74.9446 75.0057C68.9131 74.8964 62.9556 76.3533 57.6483 79.2356C53.492 81.5363 48.7983 82.6756 44.0554 82.535C39.3132 82.6694 34.6211 81.5305 30.4625 79.2356C25.1684 76.3586 19.2258 74.9018 13.2083 75.0057C12.0922 75.0057 11.0218 75.4514 10.2326 76.2446C9.44338 77.0379 9 78.1138 9 79.2356C9 80.3575 9.44338 81.4334 10.2326 82.2266C11.0218 83.0199 12.0922 83.4656 13.2083 83.4656C17.9506 83.3311 22.6427 84.47 26.8012 86.7649C32.0954 89.6419 38.0379 91.0988 44.0554 90.9948C50.0729 91.0988 56.0155 89.6419 61.3096 86.7649C65.4813 84.4646 70.1884 83.3256 74.9446 83.4656C79.6868 83.3311 84.3789 84.47 88.5375 86.7649C93.8316 89.6419 99.7742 91.0988 105.792 90.9948C106.908 90.9948 107.978 90.5492 108.767 89.7559C109.557 88.9626 110 87.8867 110 86.7649C110 85.643 109.557 84.5672 108.767 83.7739C107.978 82.9806 106.908 82.535 105.792 82.535Z" fill="white"/>
<path d="M105.792 50.535C101.049 50.6756 96.3551 49.5363 92.1988 47.2356C86.9046 44.3586 80.9621 42.9018 74.9446 43.0057C68.9131 42.8964 62.9556 44.3533 57.6483 47.2356C53.492 49.5363 48.7983 50.6756 44.0554 50.535C39.3132 50.6694 34.6211 49.5305 30.4625 47.2356C25.1684 44.3586 19.2258 42.9018 13.2083 43.0057C12.0922 43.0057 11.0218 43.4514 10.2326 44.2446C9.44338 45.0379 9 46.1138 9 47.2356C9 48.3575 9.44338 49.4334 10.2326 50.2266C11.0218 51.0199 12.0922 51.4656 13.2083 51.4656C17.9506 51.3311 22.6427 52.47 26.8012 54.7649C32.0954 57.6419 38.0379 59.0988 44.0554 58.9948C50.0729 59.0988 56.0155 57.6419 61.3096 54.7649C65.4813 52.4646 70.1884 51.3256 74.9446 51.4656C79.6868 51.3311 84.3789 52.47 88.5375 54.7649C93.8316 57.6419 99.7742 59.0988 105.792 58.9948C106.908 58.9948 107.978 58.5492 108.767 57.7559C109.557 56.9626 110 55.8867 110 54.7649C110 53.643 109.557 52.5672 108.767 51.7739C107.978 50.9806 106.908 50.535 105.792 50.535Z" fill="white"/>
<path d="M105.792 66.535C101.049 66.6756 96.3551 65.5363 92.1988 63.2356C86.9046 60.3586 80.9621 58.9018 74.9446 59.0057C68.9131 58.8964 62.9556 60.3533 57.6483 63.2356C53.492 65.5363 48.7983 66.6756 44.0554 66.535C39.3132 66.6694 34.6211 65.5305 30.4625 63.2356C25.1684 60.3586 19.2258 58.9018 13.2083 59.0057C12.0922 59.0057 11.0218 59.4514 10.2326 60.2446C9.44338 61.0379 9 62.1138 9 63.2356C9 64.3575 9.44338 65.4334 10.2326 66.2266C11.0218 67.0199 12.0922 67.4656 13.2083 67.4656C17.9506 67.3311 22.6427 68.47 26.8012 70.7649C32.0954 73.6419 38.0379 75.0988 44.0554 74.9948C50.0729 75.0988 56.0155 73.6419 61.3096 70.7649C65.4813 68.4646 70.1884 67.3256 74.9446 67.4656C79.6868 67.3311 84.3789 68.47 88.5375 70.7649C93.8316 73.6419 99.7742 75.0988 105.792 74.9948C106.908 74.9948 107.978 74.5492 108.767 73.7559C109.557 72.9626 110 71.8867 110 70.7649C110 69.643 109.557 68.5672 108.767 67.7739C107.978 66.9806 106.908 66.535 105.792 66.535Z" fill="white"/>
<path d="M105.792 58.535C101.049 58.6756 96.3551 57.5363 92.1988 55.2356C86.9046 52.3586 80.9621 50.9018 74.9446 51.0057C68.9131 50.8964 62.9556 52.3533 57.6483 55.2356C53.492 57.5363 48.7983 58.6756 44.0554 58.535C39.3132 58.6694 34.6211 57.5305 30.4625 55.2356C25.1684 52.3586 19.2258 50.9018 13.2083 51.0057C12.0922 51.0057 11.0218 51.4514 10.2326 52.2446C9.44338 53.0379 9 54.1138 9 55.2356C9 56.3575 9.44338 57.4334 10.2326 58.2266C11.0218 59.0199 12.0922 59.4656 13.2083 59.4656C17.9506 59.3311 22.6427 60.47 26.8012 62.7649C32.0954 65.6419 38.0379 67.0988 44.0554 66.9948C50.0729 67.0988 56.0155 65.6419 61.3096 62.7649C65.4813 60.4646 70.1884 59.3256 74.9446 59.4656C79.6868 59.3311 84.3789 60.47 88.5375 62.7649C93.8316 65.6419 99.7742 67.0988 105.792 66.9948C106.908 66.9948 107.978 66.5492 108.767 65.7559C109.557 64.9626 110 63.8867 110 62.7649C110 61.643 109.557 60.5672 108.767 59.7739C107.978 58.9806 106.908 58.535 105.792 58.535Z" fill="#CCB478"/>
<path d="M105.792 74.535C101.049 74.6756 96.3551 73.5363 92.1988 71.2356C86.9046 68.3586 80.9621 66.9018 74.9446 67.0057C68.9131 66.8964 62.9556 68.3533 57.6483 71.2356C53.492 73.5363 48.7983 74.6756 44.0554 74.535C39.3132 74.6694 34.6211 73.5305 30.4625 71.2356C25.1684 68.3586 19.2258 66.9018 13.2083 67.0057C12.0922 67.0057 11.0218 67.4514 10.2326 68.2446C9.44338 69.0379 9 70.1138 9 71.2356C9 72.3575 9.44338 73.4334 10.2326 74.2266C11.0218 75.0199 12.0922 75.4656 13.2083 75.4656C17.9506 75.3311 22.6427 76.47 26.8012 78.7649C32.0954 81.6419 38.0379 83.0988 44.0554 82.9948C50.0729 83.0988 56.0155 81.6419 61.3096 78.7649C65.4813 76.4646 70.1884 75.3256 74.9446 75.4656C79.6868 75.3311 84.3789 76.47 88.5375 78.7649C93.8316 81.6419 99.7742 83.0988 105.792 82.9948C106.908 82.9948 107.978 82.5492 108.767 81.7559C109.557 80.9626 110 79.8867 110 78.7649C110 77.643 109.557 76.5672 108.767 75.7739C107.978 74.9806 106.908 74.535 105.792 74.535Z" fill="#CCB478"/>
<path d="M105.792 90.535C101.049 90.6756 96.3551 89.5363 92.1988 87.2356C86.9046 84.3586 80.9621 82.9018 74.9446 83.0057C68.9131 82.8964 62.9556 84.3533 57.6483 87.2356C53.492 89.5363 48.7983 90.6756 44.0554 90.535C39.3132 90.6694 34.6211 89.5305 30.4625 87.2356C25.1684 84.3586 19.2258 82.9018 13.2083 83.0057C12.0922 83.0057 11.0218 83.4514 10.2326 84.2446C9.44338 85.0379 9 86.1138 9 87.2356C9 88.3575 9.44338 89.4334 10.2326 90.2266C11.0218 91.0199 12.0922 91.4656 13.2083 91.4656C17.9506 91.3311 22.6427 92.47 26.8012 94.7649C32.0954 97.6419 38.0379 99.0988 44.0554 98.9948C50.0729 99.0988 56.0155 97.6419 61.3096 94.7649C65.4813 92.4646 70.1884 91.3256 74.9446 91.4656C79.6868 91.3311 84.3789 92.47 88.5375 94.7649C93.8316 97.6419 99.7742 99.0988 105.792 98.9948C106.908 98.9948 107.978 98.5492 108.767 97.7559C109.557 96.9626 110 95.8867 110 94.7649C110 93.643 109.557 92.5672 108.767 91.7739C107.978 90.9806 106.908 90.535 105.792 90.535Z" fill="#CCB478"/>
</svg>
