<svg width="120" height="120" viewBox="0 0 120 120" fill="none" xmlns="http://www.w3.org/2000/svg">
<path fill-rule="evenodd" clip-rule="evenodd" d="M99.043 51.3434C103.825 72.9053 90.2199 94.2631 68.6581 99.043C47.0945 103.825 25.7367 90.2198 20.9569 68.6561C16.1752 47.0942 29.7818 25.7381 51.3419 20.9564C72.9055 16.1765 94.2632 29.7796 99.043 51.3434Z" fill="#90A1C7"/>
<path fill-rule="evenodd" clip-rule="evenodd" d="M42 46.6105C42 26.5625 79 25.2691 79 45.9638C79 58.2513 66.8793 57.6046 64.3276 69.2454C63.0517 75.0658 55.3966 74.4191 55.3966 67.952C55.3966 56.9579 64.3276 56.3112 68.1552 49.1974C70.7069 44.0237 66.2414 38.85 61.1379 38.85C50.2931 38.85 54.1207 51.1375 47.1034 51.1375C44.5517 51.1375 42 49.1974 42 46.6105ZM59.8621 88C52.2069 88 52.8448 76.3592 59.8621 76.3592C67.5172 76.3592 67.5172 88 59.8621 88Z" fill="white"/>
</svg>
