<svg width="120" height="120" viewBox="0 0 120 120" fill="none" xmlns="http://www.w3.org/2000/svg">
<path d="M19.1961 30.5C28.3088 30.5 35.6961 23.1127 35.6961 14C35.6961 10.6815 34.7165 7.59182 33.0306 5.00437C33.171 5.00146 33.3118 5 33.453 5C44.4987 5 53.453 13.9543 53.453 25C53.453 36.0457 44.4987 45 33.453 45C24.0136 45 16.1016 38.4607 14 29.6652C15.6337 30.2068 17.3807 30.5 19.1961 30.5Z" fill="#B8CEFF"/>
<mask id="path-3-outside-1" maskUnits="userSpaceOnUse" x="15" y="11" width="95" height="66" fill="black">
<rect fill="white" x="15" y="11" width="95" height="66"/>
<path d="M77.2098 72.9981C93.1413 72.8171 106 59.9035 106 44C106 27.9837 92.9583 15 76.8705 15C62.7779 15 51.0227 24.963 48.3238 38.2H36.4C26.7902 38.2 19 45.9902 19 55.6C19 65.2098 26.7902 73 36.4 73H76.9482C77.0356 73 77.1228 72.9994 77.2098 72.9981Z"/>
</mask>
<path d="M77.2098 72.9981C93.1413 72.8171 106 59.9035 106 44C106 27.9837 92.9583 15 76.8705 15C62.7779 15 51.0227 24.963 48.3238 38.2H36.4C26.7902 38.2 19 45.9902 19 55.6C19 65.2098 26.7902 73 36.4 73H76.9482C77.0356 73 77.1228 72.9994 77.2098 72.9981Z" fill="#AAAAAA"/>
<path d="M77.2098 72.9981C93.1413 72.8171 106 59.9035 106 44C106 27.9837 92.9583 15 76.8705 15C62.7779 15 51.0227 24.963 48.3238 38.2H36.4C26.7902 38.2 19 45.9902 19 55.6C19 65.2098 26.7902 73 36.4 73H76.9482C77.0356 73 77.1228 72.9994 77.2098 72.9981Z" stroke="white" stroke-width="8" mask="url(#path-3-outside-1)"/>
<mask id="path-4-outside-2" maskUnits="userSpaceOnUse" x="45" y="41" width="52" height="79" fill="black">
<rect fill="white" x="45" y="41" width="52" height="79"/>
<path fill-rule="evenodd" clip-rule="evenodd" d="M82.2175 46.1729C84.3313 47.9498 84.6043 51.1038 82.8273 53.2176L64.7355 74.7382L88.0001 74.7382C89.8655 74.7382 91.5758 75.7767 92.4363 77.4318C93.2968 79.0869 93.1644 81.0834 92.0928 82.6103L70.5056 113.372C68.9193 115.633 65.801 116.179 63.5406 114.593C61.2803 113.007 60.7337 109.888 62.32 107.628L78.383 84.7382L54.0001 84.7382C52.0561 84.7382 50.2883 83.6114 49.4676 81.8492C48.6468 80.087 48.9219 78.0088 50.1728 76.5207L75.1728 46.7826C76.9498 44.6689 80.1038 44.3959 82.2175 46.1729Z"/>
</mask>
<path fill-rule="evenodd" clip-rule="evenodd" d="M82.2175 46.1729C84.3313 47.9498 84.6043 51.1038 82.8273 53.2176L64.7355 74.7382L88.0001 74.7382C89.8655 74.7382 91.5758 75.7767 92.4363 77.4318C93.2968 79.0869 93.1644 81.0834 92.0928 82.6103L70.5056 113.372C68.9193 115.633 65.801 116.179 63.5406 114.593C61.2803 113.007 60.7337 109.888 62.32 107.628L78.383 84.7382L54.0001 84.7382C52.0561 84.7382 50.2883 83.6114 49.4676 81.8492C48.6468 80.087 48.9219 78.0088 50.1728 76.5207L75.1728 46.7826C76.9498 44.6689 80.1038 44.3959 82.2175 46.1729Z" fill="#F7DB53"/>
<path fill-rule="evenodd" clip-rule="evenodd" d="M82.2175 46.1729C84.3313 47.9498 84.6043 51.1038 82.8273 53.2176L64.7355 74.7382L88.0001 74.7382C89.8655 74.7382 91.5758 75.7767 92.4363 77.4318C93.2968 79.0869 93.1644 81.0834 92.0928 82.6103L70.5056 113.372C68.9193 115.633 65.801 116.179 63.5406 114.593C61.2803 113.007 60.7337 109.888 62.32 107.628L78.383 84.7382L54.0001 84.7382C52.0561 84.7382 50.2883 83.6114 49.4676 81.8492C48.6468 80.087 48.9219 78.0088 50.1728 76.5207L75.1728 46.7826C76.9498 44.6689 80.1038 44.3959 82.2175 46.1729Z" stroke="white" stroke-width="8" stroke-linecap="round" stroke-linejoin="round" mask="url(#path-4-outside-2)"/>
</svg>
