<svg width="120" height="120" viewBox="0 0 120 120" fill="none" xmlns="http://www.w3.org/2000/svg">
<path d="M25.7942 53.25C39.4632 53.25 50.5442 42.169 50.5442 28.5C50.5442 23.5223 49.0747 18.8877 46.5459 15.0066C46.7565 15.0022 46.9678 15 47.1795 15C63.748 15 77.1795 28.4315 77.1795 45C77.1795 61.5685 63.748 75 47.1795 75C33.0204 75 21.1524 65.191 18 51.9978C20.4506 52.8102 23.071 53.25 25.7942 53.25Z" fill="#B8CEFF"/>
<mask id="path-3-outside-1" maskUnits="userSpaceOnUse" x="35" y="40" width="71" height="51" fill="black">
<rect fill="white" x="35" y="40" width="71" height="51"/>
<path d="M80.9062 86.1875C92.556 86.1875 102 76.7435 102 65.0938C102 53.444 92.556 44 80.9062 44C70.7013 44 62.1889 51.2468 60.2345 60.875H51.6562C44.6664 60.875 39 66.5414 39 73.5312C39 80.5211 44.6664 86.1875 51.6562 86.1875H80.9062Z"/>
</mask>
<path d="M80.9062 86.1875C92.556 86.1875 102 76.7435 102 65.0938C102 53.444 92.556 44 80.9062 44C70.7013 44 62.1889 51.2468 60.2345 60.875H51.6562C44.6664 60.875 39 66.5414 39 73.5312C39 80.5211 44.6664 86.1875 51.6562 86.1875H80.9062Z" fill="#AAAAAA"/>
<path d="M80.9062 86.1875C92.556 86.1875 102 76.7435 102 65.0938C102 53.444 92.556 44 80.9062 44C70.7013 44 62.1889 51.2468 60.2345 60.875H51.6562C44.6664 60.875 39 66.5414 39 73.5312C39 80.5211 44.6664 86.1875 51.6562 86.1875H80.9062Z" stroke="white" stroke-width="8" mask="url(#path-3-outside-1)"/>
<path d="M30.7191 103.393C30.8863 103.122 35.3843 94 35.3843 94M80.5592 103.859C80.7264 103.588 85.2244 94.4655 85.2244 94.4655M55.6392 103.626C55.8063 103.355 60.3043 94.2328 60.3043 94.2328" stroke="#51C2F0" stroke-width="8" stroke-linecap="round" stroke-linejoin="round"/>
</svg>
