<svg width="120" height="120" viewBox="0 0 120 120" fill="none" xmlns="http://www.w3.org/2000/svg">
<path fill-rule="evenodd" clip-rule="evenodd" d="M74.2823 58.5074C77.8685 74.6787 67.6649 90.697 51.4935 94.2819C35.3208 97.8682 19.3026 87.6646 15.7177 71.4919C12.1314 55.3205 22.3364 39.3035 38.5064 35.7173C54.6791 32.1324 70.6974 42.3347 74.2823 58.5074Z" fill="#FFC318"/>
<mask id="path-3-outside-1" maskUnits="userSpaceOnUse" x="44" y="22" width="71" height="50" fill="black">
<rect fill="white" x="44" y="22" width="71" height="50"/>
<path d="M90.1201 67.9989C101.671 67.8847 111 58.5269 111 47C111 35.402 101.556 26 89.9062 26C79.7013 26 71.1889 33.2145 69.2345 42.7999H60.6C53.6412 42.7999 48 48.4411 48 55.3999C48 62.3587 53.6412 67.9999 60.6 67.9999H89.8433C89.8643 68 89.8853 68 89.9062 68C89.9275 68 89.9487 68 89.9699 67.9999C90.02 67.9999 90.0701 67.9996 90.1201 67.9989Z"/>
</mask>
<path d="M90.1201 67.9989C101.671 67.8847 111 58.5269 111 47C111 35.402 101.556 26 89.9062 26C79.7013 26 71.1889 33.2145 69.2345 42.7999H60.6C53.6412 42.7999 48 48.4411 48 55.3999C48 62.3587 53.6412 67.9999 60.6 67.9999H89.8433C89.8643 68 89.8853 68 89.9062 68C89.9275 68 89.9487 68 89.9699 67.9999C90.02 67.9999 90.0701 67.9996 90.1201 67.9989Z" fill="#CCCCCC"/>
<path d="M90.1201 67.9989C101.671 67.8847 111 58.5269 111 47C111 35.402 101.556 26 89.9062 26C79.7013 26 71.1889 33.2145 69.2345 42.7999H60.6C53.6412 42.7999 48 48.4411 48 55.3999C48 62.3587 53.6412 67.9999 60.6 67.9999H89.8433C89.8643 68 89.8853 68 89.9062 68C89.9275 68 89.9487 68 89.9699 67.9999C90.02 67.9999 90.0701 67.9996 90.1201 67.9989Z" stroke="white" stroke-width="8" mask="url(#path-3-outside-1)"/>
</svg>
