<svg width="120" height="120" viewBox="0 0 120 120" fill="none" xmlns="http://www.w3.org/2000/svg">
<path fill-rule="evenodd" clip-rule="evenodd" d="M89.2823 46.5075C92.8685 62.679 82.6649 78.6974 66.4935 82.2823C50.3208 85.8685 34.3026 75.6649 30.7177 59.4921C27.1314 43.3206 37.3364 27.3036 53.5064 23.7173C69.6791 20.1324 85.6974 30.3347 89.2823 46.5075Z" fill="#FFC318"/>
<path d="M105.792 61.535C101.049 61.6756 96.3551 60.5363 92.1988 58.2356C86.9046 55.3586 80.9621 53.9018 74.9446 54.0057C68.9131 53.8964 62.9556 55.3533 57.6483 58.2356C53.492 60.5363 48.7983 61.6756 44.0554 61.535C39.3132 61.6694 34.6211 60.5305 30.4625 58.2356C25.1684 55.3586 19.2258 53.9018 13.2083 54.0057C12.0922 54.0057 11.0218 54.4514 10.2326 55.2446C9.44338 56.0379 9 57.1138 9 58.2356C9 59.3575 9.44338 60.4334 10.2326 61.2266C11.0218 62.0199 12.0922 62.4656 13.2083 62.4656C17.9506 62.3311 22.6427 63.47 26.8012 65.7649C32.0954 68.6419 38.0379 70.0988 44.0554 69.9948C50.0729 70.0988 56.0155 68.6419 61.3096 65.7649C65.4813 63.4646 70.1884 62.3256 74.9446 62.4656C79.6868 62.3311 84.3789 63.47 88.5375 65.7649C93.8316 68.6419 99.7742 70.0988 105.792 69.9948C106.908 69.9948 107.978 69.5492 108.767 68.7559C109.557 67.9626 110 66.8867 110 65.7649C110 64.643 109.557 63.5672 108.767 62.7739C107.978 61.9806 106.908 61.535 105.792 61.535Z" fill="white"/>
<path d="M105.792 77.535C101.049 77.6756 96.3551 76.5363 92.1988 74.2356C86.9046 71.3586 80.9621 69.9018 74.9446 70.0057C68.9131 69.8964 62.9556 71.3533 57.6483 74.2356C53.492 76.5363 48.7983 77.6756 44.0554 77.535C39.3132 77.6694 34.6211 76.5305 30.4625 74.2356C25.1684 71.3586 19.2258 69.9018 13.2083 70.0057C12.0922 70.0057 11.0218 70.4514 10.2326 71.2446C9.44338 72.0379 9 73.1138 9 74.2356C9 75.3575 9.44338 76.4334 10.2326 77.2266C11.0218 78.0199 12.0922 78.4656 13.2083 78.4656C17.9506 78.3311 22.6427 79.47 26.8012 81.7649C32.0954 84.6419 38.0379 86.0988 44.0554 85.9948C50.0729 86.0988 56.0155 84.6419 61.3096 81.7649C65.4813 79.4646 70.1884 78.3256 74.9446 78.4656C79.6868 78.3311 84.3789 79.47 88.5375 81.7649C93.8316 84.6419 99.7742 86.0988 105.792 85.9948C106.908 85.9948 107.978 85.5492 108.767 84.7559C109.557 83.9626 110 82.8867 110 81.7649C110 80.643 109.557 79.5672 108.767 78.7739C107.978 77.9806 106.908 77.535 105.792 77.535Z" fill="white"/>
<path d="M105.792 69.535C101.049 69.6756 96.3551 68.5363 92.1988 66.2356C86.9046 63.3586 80.9621 61.9018 74.9446 62.0057C68.9131 61.8964 62.9556 63.3533 57.6483 66.2356C53.492 68.5363 48.7983 69.6756 44.0554 69.535C39.3132 69.6694 34.6211 68.5305 30.4625 66.2356C25.1684 63.3586 19.2258 61.9018 13.2083 62.0057C12.0922 62.0057 11.0218 62.4514 10.2326 63.2446C9.44338 64.0379 9 65.1138 9 66.2356C9 67.3575 9.44338 68.4334 10.2326 69.2266C11.0218 70.0199 12.0922 70.4656 13.2083 70.4656C17.9506 70.3311 22.6427 71.47 26.8012 73.7649C32.0954 76.6419 38.0379 78.0988 44.0554 77.9948C50.0729 78.0988 56.0155 76.6419 61.3096 73.7649C65.4813 71.4646 70.1884 70.3256 74.9446 70.4656C79.6868 70.3311 84.3789 71.47 88.5375 73.7649C93.8316 76.6419 99.7742 78.0988 105.792 77.9948C106.908 77.9948 107.978 77.5492 108.767 76.7559C109.557 75.9626 110 74.8867 110 73.7649C110 72.643 109.557 71.5672 108.767 70.7739C107.978 69.9806 106.908 69.535 105.792 69.535Z" fill="#CCCCCC"/>
<path d="M105.792 85.535C101.049 85.6756 96.3551 84.5363 92.1988 82.2356C86.9046 79.3586 80.9621 77.9018 74.9446 78.0057C68.9131 77.8964 62.9556 79.3533 57.6483 82.2356C53.492 84.5363 48.7983 85.6756 44.0554 85.535C39.3132 85.6694 34.6211 84.5305 30.4625 82.2356C25.1684 79.3586 19.2258 77.9018 13.2083 78.0057C12.0922 78.0057 11.0218 78.4514 10.2326 79.2446C9.44338 80.0379 9 81.1138 9 82.2356C9 83.3575 9.44338 84.4334 10.2326 85.2266C11.0218 86.0199 12.0922 86.4656 13.2083 86.4656C17.9506 86.3311 22.6427 87.47 26.8012 89.7649C32.0954 92.6419 38.0379 94.0988 44.0554 93.9948C50.0729 94.0988 56.0155 92.6419 61.3096 89.7649C65.4813 87.4646 70.1884 86.3256 74.9446 86.4656C79.6868 86.3311 84.3789 87.47 88.5375 89.7649C93.8316 92.6419 99.7742 94.0988 105.792 93.9948C106.908 93.9948 107.978 93.5492 108.767 92.7559C109.557 91.9626 110 90.8867 110 89.7649C110 88.643 109.557 87.5672 108.767 86.7739C107.978 85.9806 106.908 85.535 105.792 85.535Z" fill="#CCCCCC"/>
</svg>
