<svg width="120" height="120" viewBox="0 0 120 120" fill="none" xmlns="http://www.w3.org/2000/svg">
<path fill-rule="evenodd" clip-rule="evenodd" d="M91.2823 44.5075C94.8685 60.679 84.6649 76.6974 68.4935 80.2823C52.3208 83.8685 36.3026 73.6649 32.7177 57.4921C29.1314 41.3206 39.3364 25.3036 55.5064 21.7173C71.6791 18.1324 87.6974 28.3347 91.2823 44.5075Z" fill="#FFC318"/>
<path d="M107.792 80.535C103.049 80.6756 98.3551 79.5363 94.1988 77.2356C88.9046 74.3586 82.9621 72.9018 76.9446 73.0057C70.9131 72.8964 64.9556 74.3533 59.6483 77.2356C55.492 79.5363 50.7983 80.6756 46.0554 80.535C41.3132 80.6694 36.6211 79.5305 32.4625 77.2356C27.1684 74.3586 21.2258 72.9018 15.2083 73.0057C14.0922 73.0057 13.0218 73.4514 12.2326 74.2446C11.4434 75.0379 11 76.1138 11 77.2356C11 78.3575 11.4434 79.4334 12.2326 80.2266C13.0218 81.0199 14.0922 81.4656 15.2083 81.4656C19.9506 81.3311 24.6427 82.47 28.8012 84.7649C34.0954 87.6419 40.0379 89.0988 46.0554 88.9948C52.0729 89.0988 58.0155 87.6419 63.3096 84.7649C67.4813 82.4646 72.1884 81.3256 76.9446 81.4656C81.6868 81.3311 86.3789 82.47 90.5375 84.7649C95.8316 87.6419 101.774 89.0988 107.792 88.9948C108.908 88.9948 109.978 88.5492 110.767 87.7559C111.557 86.9626 112 85.8867 112 84.7649C112 83.643 111.557 82.5672 110.767 81.7739C109.978 80.9806 108.908 80.535 107.792 80.535Z" fill="white"/>
<path d="M107.792 64.535C103.049 64.6756 98.3551 63.5363 94.1988 61.2356C88.9046 58.3586 82.9621 56.9018 76.9446 57.0057C70.9131 56.8964 64.9556 58.3533 59.6483 61.2356C55.492 63.5363 50.7983 64.6756 46.0554 64.535C41.3132 64.6694 36.6211 63.5305 32.4625 61.2356C27.1684 58.3586 21.2258 56.9018 15.2083 57.0057C14.0922 57.0057 13.0218 57.4514 12.2326 58.2446C11.4434 59.0379 11 60.1138 11 61.2356C11 62.3575 11.4434 63.4334 12.2326 64.2266C13.0218 65.0199 14.0922 65.4656 15.2083 65.4656C19.9506 65.3311 24.6427 66.47 28.8012 68.7649C34.0954 71.6419 40.0379 73.0988 46.0554 72.9948C52.0729 73.0988 58.0155 71.6419 63.3096 68.7649C67.4813 66.4646 72.1884 65.3256 76.9446 65.4656C81.6868 65.3311 86.3789 66.47 90.5375 68.7649C95.8316 71.6419 101.774 73.0988 107.792 72.9948C108.908 72.9948 109.978 72.5492 110.767 71.7559C111.557 70.9626 112 69.8867 112 68.7649C112 67.643 111.557 66.5672 110.767 65.7739C109.978 64.9806 108.908 64.535 107.792 64.535Z" fill="white"/>
<path d="M107.792 48.535C103.049 48.6756 98.3551 47.5363 94.1988 45.2356C88.9046 42.3586 82.9621 40.9018 76.9446 41.0057C70.9131 40.8964 64.9556 42.3533 59.6483 45.2356C55.492 47.5363 50.7983 48.6756 46.0554 48.535C41.3132 48.6694 36.6211 47.5305 32.4625 45.2356C27.1684 42.3586 21.2258 40.9018 15.2083 41.0057C14.0922 41.0057 13.0218 41.4514 12.2326 42.2446C11.4434 43.0379 11 44.1138 11 45.2356C11 46.3575 11.4434 47.4334 12.2326 48.2266C13.0218 49.0199 14.0922 49.4656 15.2083 49.4656C19.9506 49.3311 24.6427 50.47 28.8012 52.7649C34.0954 55.6419 40.0379 57.0988 46.0554 56.9948C52.0729 57.0988 58.0155 55.6419 63.3096 52.7649C67.4813 50.4646 72.1884 49.3256 76.9446 49.4656C81.6868 49.3311 86.3789 50.47 90.5375 52.7649C95.8316 55.6419 101.774 57.0988 107.792 56.9948C108.908 56.9948 109.978 56.5492 110.767 55.7559C111.557 54.9626 112 53.8867 112 52.7649C112 51.643 111.557 50.5672 110.767 49.7739C109.978 48.9806 108.908 48.535 107.792 48.535Z" fill="white"/>
<path d="M107.792 72.535C103.049 72.6756 98.3551 71.5363 94.1988 69.2356C88.9046 66.3586 82.9621 64.9018 76.9446 65.0057C70.9131 64.8964 64.9556 66.3533 59.6483 69.2356C55.492 71.5363 50.7983 72.6756 46.0554 72.535C41.3132 72.6694 36.6211 71.5305 32.4625 69.2356C27.1684 66.3586 21.2258 64.9018 15.2083 65.0057C14.0922 65.0057 13.0218 65.4514 12.2326 66.2446C11.4434 67.0379 11 68.1138 11 69.2356C11 70.3575 11.4434 71.4334 12.2326 72.2266C13.0218 73.0199 14.0922 73.4656 15.2083 73.4656C19.9506 73.3311 24.6427 74.47 28.8012 76.7649C34.0954 79.6419 40.0379 81.0988 46.0554 80.9948C52.0729 81.0988 58.0155 79.6419 63.3096 76.7649C67.4813 74.4646 72.1884 73.3256 76.9446 73.4656C81.6868 73.3311 86.3789 74.47 90.5375 76.7649C95.8316 79.6419 101.774 81.0988 107.792 80.9948C108.908 80.9948 109.978 80.5492 110.767 79.7559C111.557 78.9626 112 77.8867 112 76.7649C112 75.643 111.557 74.5672 110.767 73.7739C109.978 72.9806 108.908 72.535 107.792 72.535Z" fill="#CCCCCC"/>
<path d="M107.792 88.535C103.049 88.6756 98.3551 87.5363 94.1988 85.2356C88.9046 82.3586 82.9621 80.9018 76.9446 81.0057C70.9131 80.8964 64.9556 82.3533 59.6483 85.2356C55.492 87.5363 50.7983 88.6756 46.0554 88.535C41.3132 88.6694 36.6211 87.5305 32.4625 85.2356C27.1684 82.3586 21.2258 80.9018 15.2083 81.0057C14.0922 81.0057 13.0218 81.4514 12.2326 82.2446C11.4434 83.0379 11 84.1138 11 85.2356C11 86.3575 11.4434 87.4334 12.2326 88.2266C13.0218 89.0199 14.0922 89.4656 15.2083 89.4656C19.9506 89.3311 24.6427 90.47 28.8012 92.7649C34.0954 95.6419 40.0379 97.0988 46.0554 96.9948C52.0729 97.0988 58.0155 95.6419 63.3096 92.7649C67.4813 90.4646 72.1884 89.3256 76.9446 89.4656C81.6868 89.3311 86.3789 90.47 90.5375 92.7649C95.8316 95.6419 101.774 97.0988 107.792 96.9948C108.908 96.9948 109.978 96.5492 110.767 95.7559C111.557 94.9626 112 93.8867 112 92.7649C112 91.643 111.557 90.5672 110.767 89.7739C109.978 88.9806 108.908 88.535 107.792 88.535Z" fill="#CCCCCC"/>
<path d="M107.792 56.535C103.049 56.6756 98.3551 55.5363 94.1988 53.2356C88.9046 50.3586 82.9621 48.9018 76.9446 49.0057C70.9131 48.8964 64.9556 50.3533 59.6483 53.2356C55.492 55.5363 50.7983 56.6756 46.0554 56.535C41.3132 56.6694 36.6211 55.5305 32.4625 53.2356C27.1684 50.3586 21.2258 48.9018 15.2083 49.0057C14.0922 49.0057 13.0218 49.4514 12.2326 50.2446C11.4434 51.0379 11 52.1138 11 53.2356C11 54.3575 11.4434 55.4334 12.2326 56.2266C13.0218 57.0199 14.0922 57.4656 15.2083 57.4656C19.9506 57.3311 24.6427 58.47 28.8012 60.7649C34.0954 63.6419 40.0379 65.0988 46.0554 64.9948C52.0729 65.0988 58.0155 63.6419 63.3096 60.7649C67.4813 58.4646 72.1884 57.3256 76.9446 57.4656C81.6868 57.3311 86.3789 58.47 90.5375 60.7649C95.8316 63.6419 101.774 65.0988 107.792 64.9948C108.908 64.9948 109.978 64.5492 110.767 63.7559C111.557 62.9626 112 61.8867 112 60.7649C112 59.643 111.557 58.5672 110.767 57.7739C109.978 56.9806 108.908 56.535 107.792 56.535Z" fill="#CCCCCC"/>
</svg>
